<svg width="175" height="14" viewBox="0 0 175 14" fill="none" xmlns="http://www.w3.org/2000/svg">
    <path
        d="M0.7325 12.5138V0.870769H4.52327V2.32308H2.56635V11.0738H4.52327V12.5138H0.7325ZM20.2674 2.47077L20.7474 11H18.9874L18.8827 7.35077C18.8704 6.89949 18.8663 6.50769 18.8704 6.17538C18.8786 5.84308 18.893 5.52513 18.9135 5.22154C18.934 4.91385 18.9586 4.56923 18.9874 4.18769L18.0274 9.54769H16.5012L15.4674 4.18769C15.5002 4.54462 15.5268 4.88103 15.5474 5.19692C15.5679 5.50872 15.5802 5.83692 15.5843 6.18154C15.5925 6.52615 15.5925 6.92615 15.5843 7.38154L15.5227 11H13.7935L14.2735 2.47077H16.3474L17.295 7.98462L18.1935 2.47077H20.2674ZM27.324 9.11692C27.324 9.36308 27.3568 9.54154 27.4225 9.65231C27.4922 9.76308 27.603 9.84718 27.7548 9.90462L27.3548 11.1846C26.9691 11.1477 26.643 11.0636 26.3763 10.9323C26.1138 10.7969 25.9066 10.5938 25.7548 10.3231C25.5045 10.6226 25.1845 10.8462 24.7948 10.9938C24.405 11.1374 24.0071 11.2092 23.6009 11.2092C22.9281 11.2092 22.3907 11.0185 21.9886 10.6369C21.5907 10.2513 21.3917 9.75692 21.3917 9.15385C21.3917 8.4441 21.6686 7.89641 22.2225 7.51077C22.7804 7.12513 23.564 6.93231 24.5732 6.93231H25.4532V6.68615C25.4532 6.01744 25.0225 5.68308 24.1609 5.68308C23.9517 5.68308 23.683 5.71385 23.3548 5.77538C23.0266 5.83282 22.6984 5.91692 22.3702 6.02769L21.9209 4.73538C22.3435 4.57538 22.7825 4.45436 23.2379 4.37231C23.6973 4.29026 24.1076 4.24923 24.4686 4.24923C25.4409 4.24923 26.1589 4.44821 26.6225 4.84615C27.0902 5.24 27.324 5.81026 27.324 6.55692V9.11692ZM24.2717 9.81846C24.4809 9.81846 24.7004 9.75692 24.9302 9.63385C25.1599 9.50667 25.3343 9.32821 25.4532 9.09846V8.04H24.9732C24.4317 8.04 24.0338 8.1241 23.7794 8.29231C23.525 8.45641 23.3979 8.69846 23.3979 9.01846C23.3979 9.26872 23.4738 9.46564 23.6256 9.60923C23.7815 9.74872 23.9968 9.81846 24.2717 9.81846ZM32.9222 1.66462L34.8668 1.86769V11H33.1437L33.0453 10.28C32.8648 10.5344 32.6248 10.7538 32.3253 10.9385C32.0258 11.119 31.6627 11.2092 31.2361 11.2092C30.6945 11.2092 30.2453 11.0636 29.8884 10.7723C29.5355 10.481 29.2709 10.0749 29.0945 9.55385C28.9222 9.02872 28.8361 8.41538 28.8361 7.71385C28.8361 7.04103 28.9407 6.4441 29.1499 5.92308C29.3591 5.40205 29.6586 4.99385 30.0484 4.69846C30.4381 4.39897 30.9017 4.24923 31.4391 4.24923C32.0258 4.24923 32.5202 4.45026 32.9222 4.85231V1.66462ZM31.9622 5.67077C31.6258 5.67077 31.355 5.83077 31.1499 6.15077C30.9448 6.46667 30.8422 6.99179 30.8422 7.72615C30.8422 8.26359 30.8853 8.68205 30.9714 8.98154C31.0576 9.27692 31.1766 9.4841 31.3284 9.60308C31.4802 9.72205 31.6545 9.78154 31.8514 9.78154C32.0689 9.78154 32.2658 9.71385 32.4422 9.57846C32.6227 9.44308 32.7827 9.25846 32.9222 9.02462V6.20615C32.7868 6.03795 32.6432 5.90667 32.4914 5.81231C32.3396 5.71795 32.1632 5.67077 31.9622 5.67077ZM38.2743 8.29846C38.3399 8.83179 38.5143 9.21538 38.7973 9.44923C39.0804 9.67897 39.4291 9.79385 39.8435 9.79385C40.143 9.79385 40.4322 9.74462 40.7112 9.64615C40.9902 9.54769 41.2589 9.41641 41.5173 9.25231L42.2989 10.3108C41.9912 10.5733 41.6178 10.7887 41.1789 10.9569C40.744 11.1251 40.2476 11.2092 39.6896 11.2092C38.943 11.2092 38.3173 11.0615 37.8127 10.7662C37.3081 10.4667 36.9286 10.0564 36.6743 9.53538C36.4199 9.01436 36.2927 8.41538 36.2927 7.73846C36.2927 7.09436 36.4158 6.50974 36.6619 5.98462C36.9081 5.45538 37.2671 5.03487 37.7389 4.72308C38.2148 4.40718 38.7953 4.24923 39.4804 4.24923C40.104 4.24923 40.6435 4.38256 41.0989 4.64923C41.5584 4.9159 41.9132 5.29949 42.1635 5.8C42.4178 6.30051 42.545 6.90154 42.545 7.60308C42.545 7.71385 42.5409 7.83282 42.5327 7.96C42.5286 8.08718 42.5204 8.2 42.5081 8.29846H38.2743ZM39.4804 5.55385C39.1317 5.55385 38.8507 5.67897 38.6373 5.92923C38.424 6.17949 38.2948 6.57949 38.2496 7.12923H40.6496C40.6455 6.65333 40.5532 6.2718 40.3727 5.98462C40.1922 5.69744 39.8948 5.55385 39.4804 5.55385ZM57.5199 8.50154C57.5199 8.99385 57.4255 9.40205 57.2368 9.72615C57.0481 10.0503 56.7896 10.3046 56.4614 10.4892C56.1332 10.6738 55.7578 10.8051 55.3353 10.8831C54.9168 10.961 54.4758 11 54.0122 11H51.1814V2.47077H53.883C54.4696 2.47077 55.0091 2.53641 55.5014 2.66769C55.9978 2.79897 56.3958 3.02462 56.6953 3.34462C56.9989 3.66051 57.1506 4.09538 57.1506 4.64923C57.1506 5.15795 56.9948 5.5641 56.683 5.86769C56.3712 6.17128 56.006 6.37641 55.5876 6.48308C55.8912 6.53231 56.1906 6.62872 56.486 6.77231C56.7855 6.9118 57.0317 7.12103 57.2245 7.4C57.4214 7.67897 57.5199 8.04615 57.5199 8.50154ZM55.1199 4.85231C55.1199 4.5159 55.0132 4.27385 54.7999 4.12615C54.5906 3.97436 54.2645 3.89846 53.8214 3.89846H53.1999V5.87385H53.883C54.3178 5.87385 54.6317 5.79385 54.8245 5.63385C55.0214 5.47385 55.1199 5.21333 55.1199 4.85231ZM55.4399 8.42154C55.4399 7.97026 55.3106 7.65846 55.0522 7.48615C54.7978 7.31385 54.4573 7.22769 54.0306 7.22769H53.1999V9.52923H53.9445C54.2071 9.52923 54.4512 9.50256 54.6768 9.44923C54.9065 9.39179 55.0912 9.28308 55.2306 9.12308C55.3701 8.96308 55.4399 8.72923 55.4399 8.42154ZM64.915 4.46462L62.7365 11C62.4494 11.8656 62.0145 12.5241 61.4319 12.9754C60.8535 13.4267 60.0678 13.681 59.075 13.7385L58.8535 12.3662C59.2842 12.3128 59.6309 12.2328 59.8935 12.1262C60.1601 12.0195 60.3735 11.8738 60.5335 11.6892C60.6976 11.5087 60.8391 11.279 60.9581 11H60.2935L58.2196 4.46462H60.275L61.5427 9.75692L62.9212 4.46462H64.915ZM75.496 9.39385H79.5575L79.3483 11H73.1206V9.49231L77.1699 4.02769H73.5637V2.47077H79.4652V3.99077L75.496 9.39385ZM86.3865 9.11692C86.3865 9.36308 86.4193 9.54154 86.485 9.65231C86.5547 9.76308 86.6655 9.84718 86.8173 9.90462L86.4173 11.1846C86.0316 11.1477 85.7055 11.0636 85.4388 10.9323C85.1763 10.7969 84.9691 10.5938 84.8173 10.3231C84.567 10.6226 84.247 10.8462 83.8573 10.9938C83.4675 11.1374 83.0696 11.2092 82.6634 11.2092C81.9906 11.2092 81.4532 11.0185 81.0511 10.6369C80.6532 10.2513 80.4542 9.75692 80.4542 9.15385C80.4542 8.4441 80.7311 7.89641 81.285 7.51077C81.8429 7.12513 82.6265 6.93231 83.6357 6.93231H84.5157V6.68615C84.5157 6.01744 84.085 5.68308 83.2234 5.68308C83.0142 5.68308 82.7455 5.71385 82.4173 5.77538C82.0891 5.83282 81.7609 5.91692 81.4327 6.02769L80.9834 4.73538C81.406 4.57538 81.845 4.45436 82.3004 4.37231C82.7598 4.29026 83.1701 4.24923 83.5311 4.24923C84.5034 4.24923 85.2214 4.44821 85.685 4.84615C86.1527 5.24 86.3865 5.81026 86.3865 6.55692V9.11692ZM83.3342 9.81846C83.5434 9.81846 83.7629 9.75692 83.9927 9.63385C84.2224 9.50667 84.3968 9.32821 84.5157 9.09846V8.04H84.0357C83.4942 8.04 83.0963 8.1241 82.8419 8.29231C82.5875 8.45641 82.4604 8.69846 82.4604 9.01846C82.4604 9.26872 82.5363 9.46564 82.6881 9.60923C82.844 9.74872 83.0593 9.81846 83.3342 9.81846ZM91.0862 1.04308C91.4227 1.04308 91.6975 1.14769 91.9109 1.35692C92.1242 1.56615 92.2309 1.82667 92.2309 2.13846C92.2309 2.45026 92.1242 2.71282 91.9109 2.92615C91.6975 3.13538 91.4227 3.24 91.0862 3.24C90.7457 3.24 90.4668 3.13538 90.2493 2.92615C90.036 2.71282 89.9293 2.45026 89.9293 2.13846C89.9293 1.82667 90.036 1.56615 90.2493 1.35692C90.4668 1.14769 90.7457 1.04308 91.0862 1.04308ZM92.2616 4.46462V9.67077H93.9232V11H88.4647V9.67077H90.317V5.79385H88.5262V4.46462H92.2616ZM95.6506 11V4.46462H97.3491L97.4844 5.22154C97.7757 4.89333 98.0834 4.64923 98.4075 4.48923C98.7316 4.32923 99.1009 4.24923 99.5152 4.24923C100.073 4.24923 100.512 4.41949 100.832 4.76C101.152 5.10051 101.312 5.58051 101.312 6.2V11H99.3675V6.76C99.3675 6.35795 99.3224 6.07897 99.2321 5.92308C99.146 5.76308 98.9819 5.68308 98.7398 5.68308C98.5347 5.68308 98.3378 5.74872 98.1491 5.88C97.9644 6.01128 97.7798 6.19385 97.5952 6.42769V11H95.6506ZM116.545 8.50769C116.545 9.03692 116.406 9.50462 116.127 9.91077C115.852 10.3169 115.456 10.6349 114.939 10.8646C114.422 11.0944 113.801 11.2092 113.075 11.2092C112.271 11.2092 111.596 11.0923 111.05 10.8585C110.509 10.6205 110.059 10.3272 109.702 9.97846L110.724 8.84615C111.04 9.12103 111.389 9.33436 111.77 9.48615C112.152 9.63385 112.57 9.70769 113.025 9.70769C113.448 9.70769 113.791 9.61744 114.053 9.43692C114.316 9.25231 114.447 8.99385 114.447 8.66154C114.447 8.34974 114.336 8.10564 114.115 7.92923C113.897 7.75282 113.491 7.57436 112.896 7.39385C111.899 7.09026 111.19 6.73333 110.767 6.32308C110.349 5.90872 110.139 5.37744 110.139 4.72923C110.139 4.20821 110.283 3.76308 110.57 3.39385C110.861 3.02462 111.251 2.74359 111.739 2.55077C112.228 2.35385 112.765 2.25538 113.352 2.25538C114.012 2.25538 114.595 2.3518 115.099 2.54462C115.604 2.73333 116.041 3.0041 116.41 3.35692L115.456 4.45231C115.169 4.21026 114.859 4.0318 114.527 3.91692C114.195 3.79795 113.856 3.73846 113.512 3.73846C113.126 3.73846 112.816 3.81026 112.582 3.95385C112.349 4.09333 112.232 4.30051 112.232 4.57538C112.232 4.7559 112.283 4.90769 112.385 5.03077C112.488 5.15385 112.666 5.27077 112.921 5.38154C113.175 5.48821 113.528 5.61333 113.979 5.75692C114.517 5.92103 114.976 6.11795 115.358 6.34769C115.743 6.57333 116.037 6.85846 116.238 7.20308C116.443 7.54769 116.545 7.98256 116.545 8.50769ZM119.744 1.67692V5.11077C120.289 4.53641 120.929 4.24923 121.664 4.24923C122.246 4.24923 122.691 4.41949 122.999 4.76C123.307 5.10051 123.461 5.58051 123.461 6.2V11H121.516V6.74154C121.516 6.34769 121.471 6.07282 121.381 5.91692C121.294 5.76103 121.13 5.68308 120.888 5.68308C120.683 5.68308 120.486 5.75487 120.298 5.89846C120.113 6.03795 119.928 6.23077 119.744 6.47692V11H117.799V1.86769L119.744 1.67692ZM130.683 9.11692C130.683 9.36308 130.716 9.54154 130.782 9.65231C130.852 9.76308 130.962 9.84718 131.114 9.90462L130.714 11.1846C130.329 11.1477 130.002 11.0636 129.736 10.9323C129.473 10.7969 129.266 10.5938 129.114 10.3231C128.864 10.6226 128.544 10.8462 128.154 10.9938C127.764 11.1374 127.366 11.2092 126.96 11.2092C126.287 11.2092 125.75 11.0185 125.348 10.6369C124.95 10.2513 124.751 9.75692 124.751 9.15385C124.751 8.4441 125.028 7.89641 125.582 7.51077C126.14 7.12513 126.923 6.93231 127.933 6.93231H128.813V6.68615C128.813 6.01744 128.382 5.68308 127.52 5.68308C127.311 5.68308 127.042 5.71385 126.714 5.77538C126.386 5.83282 126.058 5.91692 125.73 6.02769L125.28 4.73538C125.703 4.57538 126.142 4.45436 126.597 4.37231C127.057 4.29026 127.467 4.24923 127.828 4.24923C128.8 4.24923 129.518 4.44821 129.982 4.84615C130.45 5.24 130.683 5.81026 130.683 6.55692V9.11692ZM127.631 9.81846C127.84 9.81846 128.06 9.75692 128.29 9.63385C128.519 9.50667 128.694 9.32821 128.813 9.09846V8.04H128.333C127.791 8.04 127.393 8.1241 127.139 8.29231C126.884 8.45641 126.757 8.69846 126.757 9.01846C126.757 9.26872 126.833 9.46564 126.985 9.60923C127.141 9.74872 127.356 9.81846 127.631 9.81846ZM134.509 5.13538C134.714 4.86462 134.961 4.64923 135.248 4.48923C135.539 4.32923 135.851 4.24923 136.183 4.24923C137.024 4.24923 137.635 4.56103 138.017 5.18462C138.403 5.80821 138.595 6.65128 138.595 7.71385C138.595 8.38667 138.495 8.98769 138.294 9.51692C138.097 10.0421 137.804 10.4564 137.414 10.76C137.024 11.0595 136.546 11.2092 135.98 11.2092C135.295 11.2092 134.755 10.9426 134.362 10.4092L134.288 11H132.565V1.86769L134.509 1.66462V5.13538ZM135.469 9.79385C135.814 9.79385 136.087 9.6359 136.288 9.32C136.489 9 136.589 8.47282 136.589 7.73846C136.589 7.19692 136.546 6.77846 136.46 6.48308C136.378 6.18359 136.259 5.97641 136.103 5.86154C135.951 5.74256 135.773 5.68308 135.568 5.68308C135.35 5.68308 135.155 5.75077 134.983 5.88615C134.811 6.02154 134.653 6.20615 134.509 6.44V9.19692C134.632 9.38974 134.77 9.53744 134.922 9.64C135.073 9.74256 135.256 9.79385 135.469 9.79385ZM141.892 5.13538C142.097 4.86462 142.343 4.64923 142.631 4.48923C142.922 4.32923 143.234 4.24923 143.566 4.24923C144.407 4.24923 145.018 4.56103 145.4 5.18462C145.785 5.80821 145.978 6.65128 145.978 7.71385C145.978 8.38667 145.878 8.98769 145.677 9.51692C145.48 10.0421 145.186 10.4564 144.797 10.76C144.407 11.0595 143.929 11.2092 143.363 11.2092C142.678 11.2092 142.138 10.9426 141.744 10.4092L141.671 11H139.947V1.86769L141.892 1.66462V5.13538ZM142.852 9.79385C143.197 9.79385 143.47 9.6359 143.671 9.32C143.872 9 143.972 8.47282 143.972 7.73846C143.972 7.19692 143.929 6.77846 143.843 6.48308C143.761 6.18359 143.642 5.97641 143.486 5.86154C143.334 5.74256 143.156 5.68308 142.951 5.68308C142.733 5.68308 142.538 5.75077 142.366 5.88615C142.194 6.02154 142.036 6.20615 141.892 6.44V9.19692C142.015 9.38974 142.153 9.53744 142.304 9.64C142.456 9.74256 142.639 9.79385 142.852 9.79385ZM150.149 1.04308C150.485 1.04308 150.76 1.14769 150.973 1.35692C151.187 1.56615 151.293 1.82667 151.293 2.13846C151.293 2.45026 151.187 2.71282 150.973 2.92615C150.76 3.13538 150.485 3.24 150.149 3.24C149.808 3.24 149.529 3.13538 149.312 2.92615C149.098 2.71282 148.992 2.45026 148.992 2.13846C148.992 1.82667 149.098 1.56615 149.312 1.35692C149.529 1.14769 149.808 1.04308 150.149 1.04308ZM151.324 4.46462V9.67077H152.986V11H147.527V9.67077H149.38V5.79385H147.589V4.46462H151.324ZM154.775 11V9.69538H155.636V5.75692H154.775V4.46462H157.119L157.476 5.93538C157.71 5.37333 158.007 4.95487 158.368 4.68C158.734 4.40513 159.179 4.26769 159.704 4.26769C159.925 4.26769 160.122 4.28615 160.295 4.32308C160.467 4.3559 160.629 4.40308 160.781 4.46462L160.418 7.19692H159.199V5.99077C158.83 6.05641 158.506 6.25744 158.227 6.59385C157.948 6.92615 157.733 7.33641 157.581 7.82462V9.69538H158.873V11H154.775ZM174.082 0.870769V12.5138H170.291V11.0615H172.248V2.32308H170.291V0.870769H174.082Z"
        fill="currentColor" />
</svg>