<svg width="259" height="146" viewBox="0 0 49 24" fill="currentColor" xmlns="http://www.w3.org/2000/svg">
  <path
    d="M4.78906 3.936C4.94106 3.936 5.01706 4.216 5.01706 4.776C5.01706 4.944 4.99706 5.144 4.95706 5.376C4.92506 5.6 4.86106 5.712 4.76506 5.712H3.24106V6.912H5.44906C5.58506 6.912 5.67706 7.088 5.72506 7.44C5.74906 7.592 5.76106 7.756 5.76106 7.932C5.76106 8.1 5.73706 8.32 5.68906 8.592C5.64106 8.864 5.56106 9 5.44906 9H1.34506C1.04106 9 0.889063 8.876 0.889063 8.628V0.912C0.889063 0.704 0.981063 0.599999 1.16506 0.599999H5.46106C5.62906 0.599999 5.71306 0.956 5.71306 1.668C5.71306 2.372 5.62906 2.724 5.46106 2.724H3.24106V3.936H4.78906ZM8.94303 8.928C8.94303 8.992 8.57503 9.024 7.83903 9.024C7.11103 9.024 6.74703 8.996 6.74703 8.94V3.048C6.74703 2.992 7.11103 2.964 7.83903 2.964C8.57503 2.964 8.94303 2.988 8.94303 3.036V8.928ZM8.94303 2.328C8.94303 2.384 8.57503 2.412 7.83903 2.412C7.11103 2.412 6.74703 2.388 6.74703 2.34V0.611999C6.74703 0.531999 7.11103 0.491999 7.83903 0.491999C8.57503 0.491999 8.94303 0.516 8.94303 0.564V2.328ZM13.0643 0.672C13.0643 0.552 13.3803 0.491999 14.0123 0.491999C14.2283 0.491999 14.4763 0.507999 14.7563 0.539999C15.0443 0.564 15.1883 0.6 15.1883 0.648V6.972H15.6083C15.8083 6.972 15.9403 7.152 16.0043 7.512C16.0203 7.616 16.0283 7.76 16.0283 7.944C16.0283 8.12 15.9723 8.336 15.8603 8.592C15.7003 8.944 15.4443 9.12 15.0923 9.12C14.8283 9.12 14.5923 9.068 14.3843 8.964C14.1843 8.86 14.0483 8.752 13.9763 8.64L13.8683 8.484C13.4283 8.908 12.8763 9.12 12.2123 9.12C11.5483 9.12 10.9803 8.844 10.5083 8.292C10.0363 7.74 9.80028 6.972 9.80028 5.988C9.80028 4.996 10.0483 4.232 10.5443 3.696C11.0403 3.152 11.6603 2.88 12.4043 2.88C12.6203 2.88 12.8403 2.904 13.0643 2.952V0.672ZM12.6683 4.8C12.2203 4.8 11.9963 5.204 11.9963 6.012C11.9963 6.42 12.0603 6.716 12.1883 6.9C12.3163 7.076 12.4563 7.164 12.6083 7.164C12.7683 7.164 12.9203 7.096 13.0643 6.96V4.92C12.9283 4.84 12.7963 4.8 12.6683 4.8ZM19.0152 3.072C19.0152 2.984 19.3592 2.94 20.0472 2.94C20.7352 2.94 21.0792 2.984 21.0792 3.072V6.576C21.0792 6.976 21.2072 7.176 21.4632 7.176C21.6552 7.176 21.8712 7.092 22.1112 6.924V3.072C22.1112 2.992 22.4512 2.952 23.1312 2.952C23.8112 2.952 24.1512 2.992 24.1512 3.072V7.008H24.4632C24.7352 7.008 24.8712 7.268 24.8712 7.788C24.8712 8.052 24.8152 8.32 24.7032 8.592C24.5432 8.944 24.3272 9.12 24.0552 9.12C23.5192 9.12 23.1232 8.9 22.8672 8.46L22.8552 8.472C22.3672 8.904 21.8432 9.12 21.2832 9.12C20.5072 9.12 19.9352 8.928 19.5672 8.544C19.1992 8.152 19.0152 7.508 19.0152 6.612V3.072ZM27.7865 8.904C27.7865 8.976 27.3785 9.012 26.5625 9.012C25.9225 9.004 25.6025 8.972 25.6025 8.916V0.744C25.6025 0.624 25.9905 0.564 26.7665 0.564C27.4465 0.588 27.7865 0.628 27.7865 0.684V8.904ZM35.6818 0.599999C35.8178 0.599999 35.8858 0.956 35.8858 1.668C35.8858 2.372 35.8178 2.724 35.6818 2.724H33.4858V4.092H34.9498C35.0858 4.092 35.1538 4.404 35.1538 5.028C35.1538 5.644 35.0898 5.952 34.9618 5.952H33.4858V8.844C33.4858 8.956 33.3338 9.028 33.0298 9.06C32.7338 9.1 32.4858 9.12 32.2858 9.12L31.7218 9.096C31.3298 9.048 31.1338 8.968 31.1338 8.856V0.912C31.1338 0.783999 31.1578 0.699999 31.2058 0.659999C31.2618 0.619999 31.3418 0.599999 31.4458 0.599999H35.6818ZM38.9899 8.928C38.9899 8.992 38.6219 9.024 37.8859 9.024C37.1579 9.024 36.7939 8.996 36.7939 8.94V3.048C36.7939 2.992 37.1579 2.964 37.8859 2.964C38.6219 2.964 38.9899 2.988 38.9899 3.036V8.928ZM38.9899 2.328C38.9899 2.384 38.6219 2.412 37.8859 2.412C37.1579 2.412 36.7939 2.388 36.7939 2.34V0.611999C36.7939 0.531999 37.1579 0.491999 37.8859 0.491999C38.6219 0.491999 38.9899 0.516 38.9899 0.564V2.328ZM42.8352 8.928C42.8352 9.024 42.4992 9.072 41.8272 9.072C41.0272 9.04 40.6272 8.988 40.6272 8.916V4.668H40.0152C39.8552 4.668 39.7752 4.392 39.7752 3.84C39.7752 3.696 39.7872 3.52 39.8112 3.312C39.8432 3.104 39.9032 3 39.9912 3H40.6272V1.944C40.6272 1.784 40.9632 1.704 41.6352 1.704C42.3152 1.704 42.6552 1.768 42.6552 1.896V2.664L42.6672 3H43.6872C43.8232 3 43.8912 3.28 43.8912 3.84C43.8912 4.4 43.8232 4.68 43.6872 4.68H42.8352V8.928ZM47.1211 8.988C47.1211 9.044 46.7571 9.072 46.0291 9.072C45.3011 9.056 44.9371 9.024 44.9371 8.976V4.992H44.6131C44.4851 4.992 44.3811 4.916 44.3011 4.764C44.2291 4.604 44.1931 4.408 44.1931 4.176C44.1931 3.312 44.4491 2.88 44.9611 2.88C45.3211 2.88 45.6211 2.992 45.8611 3.216C46.1011 3.432 46.2211 3.68 46.2211 3.96C46.3891 3.632 46.6131 3.372 46.8931 3.18C47.1811 2.98 47.4731 2.88 47.7691 2.88C48.2331 2.88 48.5131 3 48.6091 3.24C48.6331 3.304 48.6451 3.4 48.6451 3.528C48.6451 3.648 48.6051 3.868 48.5251 4.188C48.4531 4.508 48.3771 4.74 48.2971 4.884C48.2171 5.028 48.1691 5.1 48.1531 5.1C48.1371 5.1 48.0611 5.072 47.9251 5.016C47.7971 4.952 47.6811 4.92 47.5771 4.92C47.2731 4.92 47.1211 5.16 47.1211 5.64V8.988ZM9.91016 23.012C9.19816 23.012 8.84216 22.932 8.84216 22.772L8.59016 17.96L7.12616 22.832C7.09416 22.928 6.82216 22.976 6.31016 22.976C5.79816 22.976 5.53416 22.932 5.51816 22.844L4.00616 17.912L3.83816 22.7C3.83016 22.82 3.67816 22.904 3.38216 22.952C3.08616 22.992 2.83816 23.012 2.63816 23.012C2.44616 23.012 2.25816 23 2.07416 22.976C1.69016 22.92 1.50216 22.82 1.51016 22.676L1.78616 14.876C1.78616 14.684 2.27416 14.588 3.25016 14.588C3.53816 14.588 3.89016 14.612 4.30616 14.66C4.72216 14.7 4.95416 14.784 5.00216 14.912L6.34616 18.692L7.52216 14.9C7.59416 14.692 8.14616 14.588 9.17816 14.588C9.47416 14.588 9.82616 14.612 10.2342 14.66C10.6502 14.7 10.8582 14.776 10.8582 14.888L11.2062 22.76C11.2062 22.848 11.0502 22.912 10.7382 22.952C10.4262 22.992 10.1502 23.012 9.91016 23.012ZM12.2769 17.072C12.2769 16.984 12.6209 16.94 13.3089 16.94C13.9969 16.94 14.3409 16.984 14.3409 17.072V20.576C14.3409 20.976 14.4689 21.176 14.7249 21.176C14.9169 21.176 15.1329 21.092 15.3729 20.924V17.072C15.3729 16.992 15.7129 16.952 16.3929 16.952C17.0729 16.952 17.4129 16.992 17.4129 17.072V21.008H17.7249C17.9969 21.008 18.1329 21.268 18.1329 21.788C18.1329 22.052 18.0769 22.32 17.9649 22.592C17.8049 22.944 17.5889 23.12 17.3169 23.12C16.7809 23.12 16.3849 22.9 16.1289 22.46L16.1169 22.472C15.6289 22.904 15.1049 23.12 14.5449 23.12C13.7689 23.12 13.1969 22.928 12.8289 22.544C12.4609 22.152 12.2769 21.508 12.2769 20.612V17.072ZM18.9242 14.636C18.9242 14.54 19.2682 14.492 19.9562 14.492C20.6522 14.492 21.0002 14.544 21.0002 14.648V16.976C21.3442 16.912 21.5882 16.88 21.7322 16.88C23.4122 16.88 24.2522 17.844 24.2522 19.772C24.2522 20.844 23.9922 21.672 23.4722 22.256C22.9602 22.832 22.2282 23.12 21.2762 23.12C20.3322 23.12 19.5482 22.908 18.9242 22.484V14.636ZM21.3962 18.752C21.2602 18.752 21.1282 18.796 21.0002 18.884V21.176C21.1122 21.224 21.2282 21.248 21.3482 21.248C21.4762 21.248 21.6042 21.2 21.7322 21.104C21.9562 20.944 22.0682 20.572 22.0682 19.988C22.0682 19.164 21.8442 18.752 21.3962 18.752ZM25.8546 18.644C25.6306 18.244 25.5186 17.92 25.5186 17.672C25.5186 17.416 25.5866 17.252 25.7226 17.18C26.1786 16.98 26.8026 16.88 27.5946 16.88C28.3946 16.88 28.9586 17.068 29.2866 17.444C29.6146 17.812 29.7786 18.36 29.7786 19.088V20.984H30.1866C30.3226 20.984 30.4266 21.064 30.4986 21.224C30.5786 21.384 30.6186 21.604 30.6186 21.884C30.6186 22.164 30.5466 22.44 30.4026 22.712C30.2666 22.984 30.0786 23.12 29.8386 23.12C29.4066 23.12 29.0586 23.004 28.7946 22.772C28.6746 22.676 28.5826 22.56 28.5186 22.424C28.1506 22.888 27.5786 23.12 26.8026 23.12C26.2186 23.12 25.7266 22.912 25.3266 22.496C24.9266 22.08 24.7266 21.588 24.7266 21.02C24.7266 19.716 25.5066 19.064 27.0666 19.064H27.7266V18.944C27.7266 18.736 27.6906 18.604 27.6186 18.548C27.5546 18.484 27.3986 18.452 27.1506 18.452C26.8466 18.452 26.4146 18.516 25.8546 18.644ZM26.8146 20.852C26.8146 21.028 26.8626 21.164 26.9586 21.26C27.0546 21.348 27.1746 21.392 27.3186 21.392C27.4706 21.392 27.6066 21.332 27.7266 21.212V20.288H27.3906C27.0066 20.288 26.8146 20.476 26.8146 20.852ZM33.9258 22.988C33.9258 23.044 33.5618 23.072 32.8338 23.072C32.1058 23.056 31.7418 23.024 31.7418 22.976V18.992H31.4178C31.2898 18.992 31.1858 18.916 31.1058 18.764C31.0338 18.604 30.9978 18.408 30.9978 18.176C30.9978 17.312 31.2538 16.88 31.7658 16.88C32.1258 16.88 32.4258 16.992 32.6658 17.216C32.9058 17.432 33.0258 17.68 33.0258 17.96C33.1938 17.632 33.4178 17.372 33.6978 17.18C33.9858 16.98 34.2778 16.88 34.5738 16.88C35.0378 16.88 35.3178 17 35.4138 17.24C35.4378 17.304 35.4498 17.4 35.4498 17.528C35.4498 17.648 35.4098 17.868 35.3298 18.188C35.2578 18.508 35.1818 18.74 35.1018 18.884C35.0218 19.028 34.9738 19.1 34.9578 19.1C34.9418 19.1 34.8658 19.072 34.7298 19.016C34.6018 18.952 34.4858 18.92 34.3818 18.92C34.0778 18.92 33.9258 19.16 33.9258 19.64V22.988ZM36.8116 18.644C36.5876 18.244 36.4756 17.92 36.4756 17.672C36.4756 17.416 36.5436 17.252 36.6796 17.18C37.1356 16.98 37.7596 16.88 38.5516 16.88C39.3516 16.88 39.9156 17.068 40.2436 17.444C40.5716 17.812 40.7356 18.36 40.7356 19.088V20.984H41.1436C41.2796 20.984 41.3836 21.064 41.4556 21.224C41.5356 21.384 41.5756 21.604 41.5756 21.884C41.5756 22.164 41.5036 22.44 41.3596 22.712C41.2236 22.984 41.0356 23.12 40.7956 23.12C40.3636 23.12 40.0156 23.004 39.7516 22.772C39.6316 22.676 39.5396 22.56 39.4756 22.424C39.1076 22.888 38.5356 23.12 37.7596 23.12C37.1756 23.12 36.6836 22.912 36.2836 22.496C35.8836 22.08 35.6836 21.588 35.6836 21.02C35.6836 19.716 36.4636 19.064 38.0236 19.064H38.6836V18.944C38.6836 18.736 38.6476 18.604 38.5756 18.548C38.5116 18.484 38.3556 18.452 38.1076 18.452C37.8036 18.452 37.3716 18.516 36.8116 18.644ZM37.7716 20.852C37.7716 21.028 37.8196 21.164 37.9156 21.26C38.0116 21.348 38.1316 21.392 38.2756 21.392C38.4276 21.392 38.5636 21.332 38.6836 21.212V20.288H38.3476C37.9636 20.288 37.7716 20.476 37.7716 20.852ZM42.2548 14.696C42.2548 14.568 42.6188 14.504 43.3468 14.504C44.0268 14.528 44.3668 14.58 44.3668 14.66V19.268L45.5548 17.072C45.6108 16.952 45.9508 16.892 46.5748 16.892C47.1988 16.892 47.5988 16.932 47.7748 17.012L46.2148 19.556L48.0148 22.928C48.0308 22.96 47.8788 22.984 47.5588 23C47.2468 23.024 46.9868 23.036 46.7788 23.036C46.0108 23.036 45.5988 23 45.5428 22.928L44.3548 20.264V22.916C44.3548 23.02 44.0028 23.072 43.2988 23.072C42.6028 23.072 42.2548 23.024 42.2548 22.928V14.696Z"
    fill="currentColor" />
</svg>