<svg width="42" height="202.125" viewBox="0 0 64 308" fill="currentColor" xmlns="http://www.w3.org/2000/svg">
  <path
    d="M61.064 248.511C60.8131 248.693 60.6801 249.153 60.7244 249.685L60.7959 249.949L59.0557 255.711L58.9672 255.651C58.7432 255.64 58.5317 255.927 58.4577 256.457C58.4135 256.788 58.3349 256.972 58.1911 257.124C57.0776 258.341 56.0459 259.801 55.1328 261.575L54.9875 261.796C54.9031 261.654 54.8131 261.528 54.7359 261.38C53.8625 259.717 52.8869 258.348 51.8349 257.188C51.6735 257.009 51.5615 256.817 51.5041 256.424C51.3973 255.728 51.1683 255.563 50.7964 255.805C50.7287 256.683 50.7964 256.908 51.2047 257.237C51.2948 257.312 51.3973 257.453 51.4416 257.618C52.0891 259.98 52.8573 262.147 53.7911 264.077L53.8353 264.28C53.7672 264.44 53.6937 264.637 53.6131 264.808C52.7885 266.534 52.114 268.471 51.5396 270.551C51.4364 270.917 51.3443 271.22 51.1057 271.341C50.8057 271.492 50.7453 271.871 50.7896 272.653C51.1625 272.925 51.3849 272.775 51.502 272.088C51.5577 271.752 51.6276 271.52 51.7896 271.348C52.8937 270.151 53.9104 268.704 54.8167 266.954L54.9801 266.685C55.1516 266.977 55.3187 267.246 55.4823 267.537L54.8479 269.639L54.7077 269.857C54.4016 270.363 54.0959 270.88 53.7875 271.383C53.5645 271.739 53.3631 272.092 53.0203 271.896C52.7615 271.748 52.5172 272.257 52.488 272.801C52.4588 273.329 52.6131 273.808 52.8573 273.941C53.1276 274.087 53.4568 273.83 53.476 273.296C53.5063 272.522 53.7801 272.242 54.0115 271.852C54.1213 271.669 54.2375 271.479 54.3479 271.295L49.0948 288.684C49.0172 288.551 48.9396 288.411 48.8172 288.384C48.626 288.348 48.5244 288.169 48.4219 287.9C48.0979 287.079 47.7651 286.275 47.424 285.437C47.7911 284.523 48.1479 283.587 48.5359 282.7C48.6099 282.527 48.7817 282.537 48.9083 282.453C49.1937 282.268 49.3407 281.716 49.2635 281.146C49.1864 280.603 48.8921 280.28 48.6099 280.441C48.3505 280.583 48.1776 281.084 48.2541 281.656C48.3115 282.073 48.2489 282.346 48.1333 282.635C47.7651 283.556 47.3964 284.475 47.0135 285.432C47.3964 286.379 47.7583 287.281 48.1187 288.179C48.2432 288.488 48.3057 288.785 48.2511 289.229C48.1844 289.754 48.3588 290.167 48.5927 290.341L48.0776 292.048L47.9901 291.909C47.376 289.618 46.6281 287.516 45.7271 285.639L45.6531 285.404C45.7145 285.259 45.7713 285.108 45.8369 284.969C46.6776 283.207 47.3667 281.223 47.9516 279.089C48.0353 278.792 48.1151 278.568 48.2984 278.452C48.6667 278.224 48.7339 277.897 48.6531 277.068C48.252 276.856 48.0907 277.016 47.9407 277.705C47.8901 277.939 47.8187 278.217 47.7177 278.332C46.5323 279.644 45.4407 281.205 44.4547 283.16C44.3631 283.015 44.2749 282.897 44.2016 282.753C44.0396 282.446 43.8563 282.199 43.6885 281.909L44.0344 279.753C44.1631 279.976 44.2932 280.199 44.4224 280.421C44.8797 279.675 45.3135 278.961 45.7511 278.254C45.9421 277.946 46.1203 277.684 46.4151 277.855C46.6776 278.009 46.9255 277.548 46.9692 277.007C47.0135 276.452 46.8505 275.936 46.5891 275.808C46.3005 275.668 45.9968 275.964 45.962 276.56C45.9255 277.127 45.7661 277.409 45.5687 277.72C45.1907 278.309 44.8276 278.937 44.4353 279.593C44.3468 279.452 44.2531 279.304 44.1609 279.153L44.1369 279.113L48.174 253.895L48.4407 254.012C48.5724 253.988 48.6349 253.847 48.6531 253.599C48.6787 253.223 48.5583 252.853 48.374 252.641L48.7208 250.472C48.9333 250.449 49.1281 250.256 49.1973 249.834C49.2744 249.387 49.1937 248.876 49.0115 248.653L49.3025 246.841L48.6151 242.546L48.7583 242.418C49.0869 242.271 49.2744 241.783 49.2192 241.18C49.1645 240.646 48.9104 240.256 48.6495 240.316C48.5104 240.348 48.4 240.493 48.3167 240.68L48.0011 238.713C48.0656 238.556 48.1421 238.427 48.2713 238.368C48.5281 238.253 48.6703 237.776 48.6552 237.325C48.6464 237.032 48.5687 236.872 48.4219 236.847C48.1959 236.811 47.9729 237.089 47.8943 237.601L47.8448 237.739L43.4968 210.576C43.7995 210.085 44.0968 209.588 44.4145 209.061C44.7724 209.656 45.1317 210.249 45.488 210.835C45.6864 211.157 45.9016 211.393 45.9083 212.049C45.9183 212.584 46.2271 212.887 46.5041 212.783C46.7692 212.684 46.9609 212.16 46.9255 211.63C46.8891 211.091 46.6385 210.576 46.3849 210.724C46.0411 210.921 45.8396 210.565 45.6187 210.209C45.2235 209.572 44.8317 208.924 44.4183 208.244C44.0635 208.823 43.7287 209.368 43.3911 209.913L43.0511 207.785C43.4937 207.117 43.9255 206.413 44.3301 205.629L44.4276 205.532C44.5 205.653 44.5853 205.779 44.6609 205.927C45.5213 207.571 46.488 208.924 47.5213 210.081C47.7088 210.287 47.8557 210.475 47.9073 210.956C47.9609 211.434 48.1828 211.657 48.4104 211.649C48.5853 211.641 48.6552 211.449 48.6552 211.124C48.6552 210.665 48.5192 210.287 48.2416 210.125C48.0797 210.03 47.9901 209.849 47.9167 209.567C47.2953 207.283 46.5484 205.176 45.6391 203.312L45.5505 203.076C45.6187 202.915 45.6833 202.74 45.7541 202.589C46.312 201.421 46.7823 200.132 47.2197 198.795L47.8297 200.812C47.6131 201.348 47.3964 201.883 47.1787 202.417C47.0927 202.625 47.0052 202.833 46.9052 203.079C47.0948 203.524 47.2765 203.931 47.4511 204.355C47.6495 204.843 47.8427 205.349 48.0411 205.841C48.1724 206.175 48.252 206.488 48.1959 206.965C48.1312 207.524 48.2932 207.979 48.5359 208.133C48.8156 208.311 49.1052 208.021 49.1973 207.467C49.2932 206.915 49.1573 206.232 48.8708 206.168C48.5323 206.087 48.3812 205.653 48.2025 205.207C47.9203 204.5 47.6281 203.807 47.3287 203.087C47.5536 202.52 47.7823 201.964 48.0083 201.404L53.4661 219.468C52.9255 218.667 52.364 217.927 51.7744 217.273C51.6312 217.116 51.5093 216.975 51.4577 216.587C51.3573 215.857 51.1844 215.716 50.7635 215.848C50.6464 216.595 50.7287 217.03 51.0744 217.267C51.2249 217.372 51.3349 217.489 51.4145 217.785C52.0192 220.029 52.7453 222.096 53.626 223.935C53.6697 224.029 53.7047 224.151 53.7443 224.271C53.4396 224.981 53.1183 225.627 52.8573 226.36C52.3735 227.73 51.9183 229.139 51.464 230.553C51.3588 230.885 51.2651 231.152 51.0505 231.256C50.8145 231.367 50.6828 231.821 50.6896 232.248C50.6916 232.581 50.7801 232.756 50.9437 232.763C51.1703 232.777 51.376 232.487 51.4568 231.961C51.4968 231.68 51.5505 231.475 51.6807 231.329C52.85 230.068 53.9197 228.537 54.8683 226.673L54.9839 226.542C55.2833 227.073 55.5719 227.618 55.8755 228.13C55.9853 228.316 56.1161 228.444 56.2301 228.622L57.2333 231.941L56.9249 231.846C56.6645 231.988 56.5041 231.771 56.3333 231.495C55.8828 230.772 55.4364 230.041 54.962 229.267C54.8631 229.432 54.7593 229.604 54.6547 229.776C54.3057 230.351 53.9541 230.927 53.6036 231.501C53.4307 231.788 53.2635 231.965 53.0093 231.846C52.7068 231.7 52.462 232.137 52.4219 232.72C52.3792 233.275 52.5907 233.823 52.874 233.903C53.1604 233.981 53.4255 233.621 53.4525 232.997C53.4708 232.581 53.5724 232.373 53.7192 232.144C54.1385 231.481 54.5479 230.792 54.9677 230.101C55.4328 230.859 55.8973 231.581 56.3391 232.356C56.4359 232.524 56.4459 232.888 56.4911 233.164C56.5885 233.735 56.8683 234.035 57.1464 233.864C57.3864 233.715 57.5005 233.257 57.4833 232.769L61.7333 246.841L61.2573 248.417L61.064 248.511ZM56.9287 261.432C56.5593 262.415 56.1421 263.33 55.7489 264.269C55.9031 264.635 56.0333 264.947 56.1677 265.265L55.6421 267.011C55.4249 266.63 55.1948 266.289 54.9875 265.877C54.114 267.595 53.1787 269.051 52.0979 270.124C52.6464 267.92 53.3828 266.012 54.2453 264.265C53.9511 263.603 53.6656 263.008 53.4073 262.372C53.1443 261.734 52.9016 261.064 52.6645 260.387C52.4364 259.735 52.2047 259.083 52.0817 258.301C53.1697 259.421 54.114 260.908 54.9781 262.577C56.8016 259.449 57.4801 258.48 57.9729 258.369C57.6125 259.439 57.2927 260.471 56.9287 261.432ZM56.324 264.749L56.1989 264.464L56.1255 264.232C56.1749 264.108 56.2208 263.976 56.2765 263.863C56.6989 262.985 57.0812 262.049 57.4339 261.073L56.324 264.749ZM49.4625 299.784V301.932H14.3817V299.784H49.4625ZM49.4625 305.9H14.3817V303.751H49.4625V305.9ZM15.3536 290.683L14.8369 288.975C15.2875 288.324 15.7235 287.637 16.1276 286.863C16.2016 286.723 16.2797 286.593 16.3687 286.439L16.5525 286.746C17.3995 288.396 18.3573 289.756 19.3943 290.885C19.5557 291.061 19.6364 291.277 19.688 291.632C19.7541 292.093 19.9968 292.393 20.1937 292.287C20.2724 292.246 20.3661 292.048 20.3844 291.891C20.4339 291.489 20.2869 291.003 20.0525 290.888C19.8459 290.788 19.7563 290.547 19.6656 290.22C19.1292 288.26 18.4932 286.439 17.7249 284.809C17.6552 284.66 17.5927 284.499 17.5192 284.332L17.6073 284.063C18.4031 282.401 19.0615 280.541 19.614 278.536L19.964 280.72C20.0151 281.195 19.9249 281.496 19.8 281.812C19.4708 282.64 19.1391 283.459 18.7948 284.311C19.1349 285.146 19.4495 285.929 19.7692 286.711C19.9156 287.077 20.0224 287.425 19.962 287.965C19.8995 288.518 20.1203 288.988 20.3896 289.048C20.6385 289.101 20.8776 288.724 20.9229 288.225C20.9708 287.687 20.8088 287.151 20.5265 287.097C20.3187 287.057 20.2068 286.868 20.0948 286.565C19.8943 286.025 19.6735 285.515 19.4588 284.992C19.364 284.763 19.2651 284.537 19.1719 284.32C19.4771 283.572 19.7563 282.903 20.0317 282.216L20.1583 281.936L22.4489 296.239L22.3167 296.559C22.3016 296.679 22.3349 296.799 22.3511 296.923H17.2375L15.514 291.213C15.7964 290.747 16.0776 290.281 16.374 289.803C16.7505 290.427 17.1235 291.056 17.5083 291.664C17.6583 291.909 17.7964 292.105 17.8036 292.584C17.8077 293.057 18.0224 293.361 18.252 293.387C18.476 293.405 18.6787 293.118 18.7489 292.669C18.8573 291.973 18.574 291.309 18.1844 291.444C17.9801 291.515 17.8391 291.42 17.6937 291.181C17.5536 290.952 17.4068 290.74 17.2672 290.512C16.9677 290.022 16.6735 289.525 16.3651 289.009C16.2531 289.199 16.1568 289.368 16.0593 289.528C15.8244 289.913 15.5891 290.297 15.3536 290.683ZM14.3536 287.373C14.7249 286.309 15.1297 285.283 15.6036 284.325C14.8208 282.668 14.1151 280.923 13.6151 278.848C14.6443 279.881 15.5375 281.277 16.3687 282.93C17.2025 281.264 18.1109 279.876 19.1437 278.804C18.6421 280.847 17.9588 282.621 17.1385 284.297C17.9328 285.957 18.6292 287.735 19.1735 289.73L19.0979 289.908C18.6213 289.26 18.1312 288.649 17.6697 287.953C17.2229 287.267 16.8025 286.499 16.3479 285.723C15.8391 286.749 15.2703 287.629 14.6755 288.44L14.3536 287.373ZM15.1109 250.408C14.6464 251.112 14.1625 251.767 13.6369 252.307C13.9729 251.008 14.3891 249.834 14.8391 248.711L15.1109 250.408ZM14.8687 244.792C14.4083 243.653 13.9823 242.467 13.6479 241.146C14.1667 241.592 14.6312 242.215 15.0687 242.907L15.1495 243.04L14.8687 244.792ZM13.65 285.041C13.7468 284.796 13.8427 284.563 13.9421 284.311C13.5853 283.412 13.238 282.548 12.8911 281.681C12.7823 281.409 12.7235 281.153 12.7771 280.763C12.8505 280.224 12.6864 279.752 12.4437 279.62C12.3025 279.539 12.1631 279.6 12.0495 279.74L9.41093 271.013L9.45467 271.071C9.6036 271.232 9.6724 271.451 9.72547 271.765C9.83387 272.412 10.0432 272.554 10.3943 272.297C10.4364 271.561 10.3781 271.208 10.0968 271.065C9.87186 270.951 9.788 270.665 9.69067 270.321C9.14787 268.367 8.51613 266.546 7.74013 264.923C7.66507 264.763 7.5948 264.577 7.53013 264.427L7.57133 264.236C8.44947 262.42 9.17346 260.384 9.78013 258.164C9.8208 258.009 9.91827 257.876 10.0052 257.807C10.3869 257.496 10.4516 257.285 10.3869 256.459C10.038 256.232 9.8224 256.387 9.72347 257.041C9.66827 257.411 9.56147 257.592 9.41093 257.76C8.4224 258.849 7.5052 260.137 6.68533 261.7L6.626 261.795L5.44427 257.88C5.77707 258.425 6.10987 258.971 6.4464 259.527C6.86773 258.844 7.27294 258.173 7.68854 257.515C7.8468 257.259 7.99586 257.041 8.24786 257.18C8.49893 257.32 8.71667 256.984 8.7844 256.525C8.86094 255.987 8.72187 255.453 8.46147 255.285C8.202 255.118 7.9364 255.393 7.8448 255.928C7.7984 256.187 7.7932 256.532 7.7036 256.689C7.2984 257.404 6.8708 258.063 6.44213 258.752C6.08747 258.164 5.74427 257.579 5.39107 257.018C5.21827 256.744 5.0672 256.509 5.05306 255.985C5.04013 255.589 4.86146 255.38 4.66866 255.316L2.1104 246.841L6.49266 232.334C6.876 232.969 7.2552 233.605 7.64107 234.216C7.7792 234.43 7.87294 234.627 7.89107 235.018C7.9172 235.604 8.16454 235.942 8.4344 235.869C8.7016 235.793 8.89787 235.279 8.8588 234.757C8.8224 234.209 8.59066 233.799 8.30826 233.935C8.0692 234.048 7.91094 233.88 7.75107 233.612C7.41827 233.071 7.0896 232.53 6.7604 231.989L6.65 231.808L7.1672 230.099C7.9052 231.375 8.69214 232.517 9.55627 233.451C9.6792 233.587 9.72867 233.779 9.7672 234.044C9.84067 234.539 10.0359 234.811 10.2489 234.797C10.4031 234.792 10.4864 234.627 10.488 234.315C10.4959 233.912 10.3687 233.485 10.1479 233.381C9.94586 233.283 9.85987 233.034 9.7604 232.72C9.33174 231.391 8.9052 230.067 8.4516 228.779C8.29947 228.352 8.11147 227.96 7.93334 227.563L10.1683 220.163C10.3687 219.992 10.4364 219.699 10.426 219.309L14.6593 205.3C14.8167 205.675 14.9568 206.075 15.126 206.432C15.1937 206.573 15.2541 206.737 15.3187 206.889L15.2359 207.111C14.3797 208.864 13.6812 210.844 13.0948 212.991C13.0244 213.257 12.9421 213.428 12.7896 213.516C12.5281 213.668 12.4016 214.024 12.4016 214.456C12.4016 214.761 12.4661 214.941 12.6297 214.948C12.8468 214.957 13.0525 214.746 13.1036 214.296C13.1516 213.846 13.2911 213.668 13.4661 213.475C14.4385 212.387 15.3468 211.116 16.1552 209.569C16.2249 209.43 16.3057 209.313 16.376 209.199L16.4661 209.291C17.3552 211.015 18.3531 212.43 19.4287 213.629C19.5281 213.737 19.5959 213.996 19.6453 214.215L19.7307 214.429L15.6552 239.881C15.5453 239.703 15.4344 239.511 15.3219 239.336C15.1464 239.057 15.0063 238.811 14.9859 238.295C14.9677 237.784 14.6864 237.48 14.4344 237.571C14.1828 237.667 13.9989 238.147 14.0249 238.64C14.0525 239.156 14.2749 239.627 14.5244 239.504C14.8588 239.34 15.0593 239.684 15.2765 240.036C15.3703 240.187 15.464 240.341 15.5557 240.493L15.2328 242.518C14.6369 241.588 14.0177 240.724 13.3479 240C13.2047 239.848 13.1593 239.634 13.1151 239.347C13.0411 238.865 12.8317 238.603 12.6187 238.637C12.4807 238.66 12.4093 238.811 12.4016 239.087C12.3869 239.511 12.5197 239.959 12.762 240.067C12.9568 240.154 13.0359 240.389 13.1183 240.689C13.5839 242.383 14.1443 243.939 14.7729 245.393L14.5411 246.841L14.7453 248.123C14.1057 249.612 13.5359 251.185 13.0744 252.911C12.9968 253.205 12.876 253.273 12.738 253.369C12.5104 253.527 12.374 253.973 12.4031 254.384C12.4203 254.618 12.4787 254.751 12.6036 254.773C12.8265 254.815 13.0464 254.588 13.1077 254.103C13.1552 253.695 13.2744 253.512 13.4396 253.328C14.0615 252.64 14.6421 251.83 15.2016 250.963L15.5229 252.98C15.4125 253.16 15.2984 253.351 15.1885 253.527C15.0083 253.815 14.8391 254.093 14.5645 253.907C14.3719 253.777 14.1916 254.034 14.0891 254.407C13.9859 254.767 14.0041 255.177 14.1369 255.497C14.2771 255.836 14.4547 255.93 14.6593 255.82C14.8651 255.707 15.002 255.418 15.0041 254.985C15.0041 254.615 15.1 254.439 15.2307 254.239C15.3577 254.037 15.4953 253.805 15.6219 253.597L19.4677 277.62L19.3713 277.748C18.3609 278.867 17.4255 280.192 16.5849 281.792C16.5192 281.929 16.4344 282.039 16.3479 282.176C15.4235 280.337 14.3964 278.869 13.2823 277.636C13.1864 277.528 13.1183 277.267 13.0708 277.048C12.9312 276.4 12.7792 276.248 12.4031 276.448C12.326 277.228 12.3891 277.536 12.7364 277.749C12.9093 277.857 12.9828 278.069 13.062 278.348C13.6109 280.353 14.2583 282.218 15.0484 283.876C15.1109 284.007 15.1645 284.148 15.2208 284.285L15.1531 284.505C14.7984 285.246 14.5172 286.093 14.212 286.907L13.65 285.041ZM6.77294 262.281C7.5036 260.946 8.28227 259.729 9.1792 258.805C9.06347 259.54 8.8468 260.153 8.63173 260.767C8.40933 261.403 8.1792 262.032 7.93334 262.632C7.74014 263.108 7.52294 263.571 7.30627 264.047L6.77294 262.281ZM15.2437 203.365C15.6292 203.987 16.0041 204.632 16.4083 205.309C17.2068 203.72 18.102 202.348 19.1235 201.317C18.5907 203.385 17.9125 205.197 17.0719 206.872C17.8828 208.544 18.5907 210.328 19.1011 212.418C18.0921 211.409 17.2161 210.049 16.3901 208.42C15.5593 210.042 14.6625 211.441 13.6297 212.488C14.1667 210.407 14.8573 208.564 15.7047 206.893C15.3719 206.221 15.1131 205.467 14.8276 204.741L15.2437 203.365ZM15.8921 201.215C16.0577 201.483 16.2161 201.739 16.3844 202.016C16.8025 201.339 17.2011 200.681 17.602 200.036C17.7724 199.764 17.9307 199.527 18.1916 199.673C18.4416 199.808 18.6583 199.457 18.7229 198.992C18.7948 198.455 18.6495 197.924 18.3869 197.768C18.126 197.613 17.8651 197.899 17.7781 198.441C17.7416 198.679 17.7416 199.005 17.6625 199.147C17.2453 199.872 16.8077 200.548 16.3828 201.237C16.2692 201.051 16.1604 200.877 16.0505 200.695L17.2375 196.76H22.5577L20.4833 209.717C20.3683 209.656 20.2411 209.612 20.1771 209.464C19.8145 208.632 19.4771 207.753 19.1161 206.861C19.2776 206.485 19.4396 206.121 19.5943 205.744C19.7505 205.369 19.9068 204.989 20.0525 204.597C20.1719 204.281 20.2797 204.037 20.5135 204.009C20.7932 203.973 20.9473 203.424 20.8964 202.871C20.852 202.373 20.6052 202.007 20.3588 202.071C20.1073 202.136 19.8609 202.608 19.9287 203.081C20.0276 203.763 19.8448 204.153 19.6697 204.591C19.3631 205.352 19.0516 206.105 18.7323 206.893C18.8167 207.101 18.8973 207.295 18.9771 207.493C19.2563 208.173 19.5333 208.853 19.8057 209.537C19.9197 209.821 19.9989 210.093 19.9407 210.52C19.8755 210.973 20.0073 211.339 20.1937 211.53L19.8995 213.369C19.8036 213.251 19.7192 213.127 19.6568 212.928C19.3276 211.875 19.0203 210.792 18.6573 209.787C18.2948 208.785 17.8755 207.864 17.462 206.855L17.5667 206.592C18.4083 204.849 19.1031 202.895 19.6776 200.764C19.7563 200.463 19.8609 200.324 20.0244 200.232C20.2651 200.093 20.3807 199.673 20.3609 199.223C20.3552 198.973 20.2907 198.848 20.1729 198.816C19.9692 198.752 19.7271 199.017 19.6677 199.483C19.614 199.881 19.502 200.08 19.3349 200.264C18.3479 201.351 17.4312 202.649 16.6109 204.208C16.5396 204.344 16.4568 204.455 16.3792 204.575L16.2651 204.411C15.9859 203.868 15.6703 203.428 15.3683 202.948L15.8921 201.215ZM41.8599 196.76H43.7219C43.9516 197.135 44.1792 197.505 44.4167 197.892C44.6577 197.501 44.8833 197.133 45.1131 196.76H46.6057L46.7088 197.104C45.9407 198.083 45.2025 199.155 44.5432 200.439L44.4224 200.615C44.3396 200.487 44.2531 200.368 44.176 200.224C43.4697 198.883 42.6833 197.765 41.8599 196.76ZM42.6683 205.397C42.9849 204.588 43.3213 203.807 43.6853 203.057C42.7921 201.277 42.0692 199.348 41.5052 197.148C42.5907 198.245 43.5411 199.705 44.3911 201.395C44.8833 200.571 45.3375 199.769 45.8115 199.025C46.1443 198.505 46.4989 198.045 46.8703 197.636L47.0213 198.137C46.5011 199.928 45.8849 201.573 45.1411 203.079C46.0411 204.856 46.7749 206.817 47.3468 209.032C46.2489 207.917 45.2953 206.431 44.4104 204.705C43.9473 205.619 43.4568 206.413 42.9473 207.152L42.6683 205.397ZM41.6099 198.787C42.0713 200.191 42.5713 201.54 43.1593 202.76L43.2697 203.04C43.0271 203.633 42.8025 204.199 42.5672 204.765L41.6099 198.787ZM20.5667 221.98L20.714 221.056C21.1364 221.647 21.6031 222.207 21.938 222.859C21.4511 222.607 21.0172 222.281 20.5667 221.98ZM16.7724 245.683L17.0448 243.973C17.3407 244.227 17.6516 244.465 17.9307 244.735C20.5427 242.525 21.2979 241.988 21.9891 241.891C21.4984 242.616 21.0667 243.311 20.5776 243.959C20.074 244.621 19.5104 245.237 18.9577 245.896C20.1495 247.075 21.1453 248.391 21.9083 249.881C20.4339 249.121 19.1369 248.139 17.9547 246.969C17.6255 247.265 17.3297 247.544 17.0203 247.811L16.7724 248.009L16.5875 246.841L16.6973 246.148L16.9416 245.873L16.7724 245.683ZM20.6735 272.364L20.5041 271.311C20.9563 271.007 21.3901 270.679 21.8807 270.43C21.5353 271.118 21.1183 271.752 20.6735 272.364ZM47.5839 292.357C47.6937 292.477 47.7801 292.621 47.852 292.799L46.6057 296.923H41.2859L42.2036 291.183C42.926 290.247 43.6187 289.23 44.2401 288.022L44.4353 287.695C44.5292 287.86 44.6131 287.997 44.6907 288.146C45.5604 289.815 46.5344 291.189 47.5839 292.357ZM44.4547 286.934C43.9735 287.759 43.5271 288.576 43.0495 289.307C42.8224 289.647 42.5853 289.947 42.3525 290.261L42.8375 287.232C43.0896 286.62 43.3375 285.999 43.6131 285.417C43.4849 285.151 43.3833 284.855 43.2609 284.583L43.5853 282.557C43.8667 283.03 44.1683 283.434 44.4353 283.964C45.3167 282.205 46.2672 280.72 47.3631 279.62C46.8317 281.828 46.0801 283.684 45.2489 285.447C46.1297 287.224 46.8484 289.139 47.4031 291.305C46.2964 290.164 45.3244 288.681 44.4547 286.934ZM46.8703 244.423L47.2563 246.841L47.1479 247.52C46.9364 247.332 46.714 247.161 46.5104 246.96C45.3265 248.116 44.0635 249.099 42.6 249.823C43.3448 248.337 44.3396 247.051 45.5068 245.873C45.1057 245.427 44.7229 245.025 44.3729 244.596C44.0177 244.164 43.6864 243.713 43.3667 243.259C43.0583 242.818 42.7437 242.377 42.5765 241.851C44.0525 242.607 45.3287 243.609 46.4968 244.735C46.6401 244.613 46.7401 244.532 46.8703 244.423ZM41.038 224.634C41.3448 224.641 41.624 224.447 41.7307 224.093C41.788 223.903 41.8557 223.764 42.038 223.667C42.5161 223.409 42.9552 223.099 43.4093 222.807L43.6088 224.06C43.3213 224.103 43.0817 224.293 43.038 224.603C42.9828 224.977 43.2661 225.348 43.652 225.403L43.8187 225.361L46.4416 241.753C45.8536 241.28 45.262 240.825 44.7036 240.335C44.5744 240.22 44.5645 239.973 44.5 239.788C44.3667 239.404 43.988 239.207 43.6109 239.327C43.2349 239.448 43.0344 239.83 43.15 240.216C43.2459 240.546 43.5577 240.787 43.9219 240.685C44.2801 240.587 44.4968 240.742 44.7249 240.927C45.3208 241.399 45.9073 241.879 46.512 242.369L46.538 242.348L46.7984 243.977L46.7088 244.059L46.514 244.209L46.1703 243.928C44.988 242.807 43.6683 241.883 42.2459 241.1C42.0249 240.981 41.8744 240.851 41.7953 240.587C41.652 240.116 41.3437 240.005 40.8407 240.168C40.75 240.76 40.8407 240.912 41.3891 241.134C41.514 241.185 41.6541 241.28 41.7145 241.391C42.5853 242.984 43.6297 244.444 44.8943 245.747L44.9525 245.881L44.6479 246.239C43.5344 247.403 42.6229 248.709 41.8407 250.111C41.7052 250.357 41.5801 250.561 41.2583 250.644C40.8547 250.746 40.7692 251 40.8301 251.529C41.3339 251.712 41.6349 251.609 41.7932 251.148C41.8667 250.92 41.9667 250.764 42.1812 250.648C43.6776 249.84 45.0541 248.865 46.2823 247.685L46.5011 247.504C46.6959 247.669 46.8849 247.821 47.0724 247.988L46.8145 249.599L46.5083 249.349C46.3891 249.444 46.2604 249.541 46.1349 249.644C45.7183 249.984 45.3063 250.334 44.8849 250.671C44.5875 250.911 44.3135 251.149 43.8484 251.017C43.4989 250.918 43.1683 251.26 43.126 251.628C43.0853 251.984 43.2973 252.305 43.6281 252.397C43.9916 252.495 44.4407 252.323 44.4661 251.961C44.5068 251.44 44.876 251.251 45.1943 250.988C45.6208 250.629 46.0495 250.277 46.5011 249.903L46.7359 250.092L43.8833 267.913L43.6229 267.889C43.264 267.997 43.0615 268.341 43.1333 268.715C43.1864 268.993 43.4131 269.18 43.6755 269.213L43.4787 270.446C43.0896 270.195 42.7125 269.925 42.3031 269.7C42.0563 269.561 41.7984 269.447 41.7932 269.105L41.7719 269.053C41.6349 268.772 41.3192 268.575 41.0505 268.646L40.7995 268.883C40.7145 269.165 40.874 269.547 41.176 269.601C41.626 269.687 41.7468 270.02 41.9292 270.337C42.3031 270.984 42.7697 271.561 43.2036 272.163L42.8891 274.132C42.5161 273.68 42.1448 273.23 41.7828 272.781C41.5292 272.469 41.2697 272.188 41.4041 271.701C41.5052 271.337 41.1167 270.984 40.7364 270.965C40.3979 270.952 40.0787 271.208 40.0161 271.541C39.9407 271.939 40.1651 272.336 40.5656 272.363C40.8979 272.383 41.0505 272.56 41.2276 272.781C41.6651 273.332 42.1151 273.869 42.5656 274.418C42.0593 275.046 41.5708 275.672 41.0541 276.276C40.9645 276.38 40.7719 276.415 40.6208 276.451C40.3244 276.523 40.1063 276.673 40.0292 276.975C39.9552 277.265 40.0229 277.525 40.2719 277.72C40.4864 277.892 40.8156 277.923 41.0563 277.785C41.3192 277.628 41.5 277.372 41.402 277.089C41.2771 276.716 41.45 276.487 41.6479 276.239C42.0197 275.78 42.3964 275.317 42.7729 274.853L42.2568 278.071C42.1151 278.288 41.9667 278.5 41.8244 278.718C41.6792 278.942 41.5531 279.118 41.2677 279.204C40.8339 279.33 40.7416 279.604 40.8599 280.127C41.4093 280.254 41.6464 280.156 41.8041 279.669C41.85 279.527 41.9568 279.457 42.0484 279.372L39.2401 296.923H24.6031L21.7172 278.887C21.8828 278.984 22.0385 279.093 22.2077 279.187C22.4016 279.292 22.5667 279.385 22.6396 279.644C22.7781 280.141 23.0036 280.236 23.574 280.151C23.7411 279.651 23.6292 279.352 23.162 279.191C22.9599 279.123 22.8077 279.048 22.6989 278.847C22.3036 278.111 21.8552 277.415 21.3735 276.744L20.7563 272.888C21.4396 272.032 22.0708 271.139 22.6073 270.179C22.7427 269.934 22.8573 269.716 23.188 269.648C23.5255 269.575 23.7375 269.218 23.6656 268.929L23.3896 268.646C23.1073 268.571 22.7672 268.787 22.6625 269.117C22.5921 269.341 22.5093 269.505 22.2896 269.625C21.6328 269.979 21.0369 270.421 20.4287 270.846L20.1749 269.261C20.2833 269.236 20.3937 269.213 20.5375 269.249C20.9416 269.353 21.2765 269.059 21.3369 268.665C21.3943 268.292 21.1131 267.921 20.7301 267.863C20.4031 267.815 20.1364 268.012 20.0244 268.315L17.1776 250.528C17.4312 250.318 17.6787 250.116 17.9473 249.893C18.1401 250.059 18.3317 250.227 18.5276 250.388C18.8864 250.681 19.2432 250.98 19.614 251.259C19.8016 251.401 19.9328 251.537 19.9344 251.799C19.9385 252.109 20.1364 252.313 20.4339 252.392C20.726 252.469 20.9875 252.399 21.1859 252.154C21.3719 251.923 21.3953 251.628 21.2484 251.372C21.0959 251.104 20.8349 250.927 20.5577 251.017C20.1839 251.141 19.9525 250.98 19.7068 250.777C19.1276 250.312 18.5525 249.844 17.9459 249.351C17.6552 249.585 17.3797 249.807 17.0979 250.035L16.8391 248.42C17.1328 248.176 17.4407 247.952 17.7172 247.685L17.9359 247.504C18.4459 247.939 18.9104 248.396 19.4339 248.769C20.324 249.407 21.2484 249.997 22.1677 250.595C22.3828 250.736 22.5833 250.832 22.6583 251.139C22.7687 251.576 23.0411 251.669 23.5797 251.58C23.7391 251.076 23.6235 250.781 23.1568 250.624C22.95 250.556 22.8016 250.473 22.6948 250.273C21.852 248.711 20.8312 247.277 19.5849 246.008L19.4823 245.848L19.6896 245.599C20.8755 244.376 21.8459 242.997 22.6645 241.507C22.7724 241.307 22.8776 241.148 23.1421 241.1C23.4672 241.042 23.6396 240.791 23.6771 240.465C23.7077 240.191 23.5516 240.037 23.2755 240.071C22.95 240.109 22.7099 240.287 22.6396 240.608C22.5943 240.837 22.4744 240.956 22.2833 241.06C20.7724 241.879 19.3812 242.863 18.1401 244.059L17.9511 244.204L17.6479 243.965C17.4787 243.805 17.2927 243.671 17.1183 243.518L17.376 241.913L17.5083 242.022C17.6495 242.136 17.7896 242.256 17.9339 242.376C18.5187 241.901 19.076 241.441 19.6396 240.989C19.9125 240.769 20.1656 240.581 20.5869 240.688C20.9744 240.787 21.3131 240.44 21.3443 240.049C21.3719 239.695 21.0979 239.356 20.7359 239.3C20.35 239.239 19.9823 239.481 19.9416 239.895C19.9125 240.168 19.8016 240.327 19.5901 240.476C19.3025 240.681 19.0333 240.911 18.7635 241.134C18.4932 241.357 18.2287 241.588 17.9588 241.817C17.7875 241.68 17.6235 241.547 17.4568 241.411L20.0812 225.015C20.2432 225.289 20.5135 225.463 20.8292 225.385C21.2099 225.291 21.438 224.918 21.3473 224.528C21.2687 224.171 20.9511 223.925 20.55 224.013L20.2432 224.004L20.4911 222.449C21.0353 222.827 21.5667 223.224 22.1489 223.548C22.4135 223.693 22.6235 223.835 22.714 224.172C22.8292 224.592 23.1787 224.687 23.6489 224.524C23.7281 223.949 23.6255 223.771 23.1421 223.573C23.002 223.515 22.8369 223.424 22.7687 223.299C22.2077 222.28 21.5411 221.335 20.8145 220.424L21.4249 216.616C21.8735 215.988 22.2896 215.337 22.6656 214.659C22.7833 214.448 22.8885 214.267 23.1656 214.187C23.6568 214.044 23.7505 213.796 23.6235 213.247C23.074 213.124 22.8703 213.23 22.6656 213.701C22.6 213.859 22.4932 214.04 22.3531 214.116C22.1505 214.229 21.964 214.361 21.7672 214.48L24.6031 196.76H39.2401L42.014 214.091C41.8911 214.008 41.7859 213.912 41.7349 213.727C41.5968 213.235 41.3631 213.139 40.7973 213.228C40.6339 213.732 40.7479 214.027 41.2145 214.184C41.4183 214.256 41.5692 214.335 41.6755 214.535C41.8339 214.824 42.0473 215.073 42.2167 215.353L42.7287 218.561C42.6057 218.417 42.4807 218.276 42.3615 218.129C42.1005 217.813 41.85 217.492 41.5948 217.173C41.3891 216.909 41.2197 216.664 41.3156 216.272C41.4093 215.891 41.1208 215.575 40.7536 215.516C40.3744 215.457 40.0359 215.673 39.9421 216.036C39.8505 216.397 40.0323 216.825 40.402 216.861C40.8833 216.915 41.0853 217.24 41.3353 217.551C41.6973 217.997 42.0692 218.436 42.4421 218.884C41.9459 219.504 41.4697 220.118 40.9625 220.707C40.8656 220.821 40.6411 220.84 40.4719 220.888C40.1651 220.972 39.952 221.208 39.9203 221.515C39.8911 221.792 40.0432 222.072 40.2984 222.208C40.5735 222.355 40.9224 222.332 41.1135 222.085C41.2349 221.927 41.3557 221.661 41.3104 221.491C41.2125 221.141 41.3577 220.92 41.5495 220.685C41.9625 220.169 42.3849 219.649 42.8192 219.113L43.1297 221.063C42.6609 221.752 42.1943 222.441 41.7437 223.142C41.5968 223.368 41.4755 223.546 41.1833 223.616C40.8656 223.691 40.6864 223.997 40.6921 224.285C40.6984 224.511 40.8156 224.628 41.038 224.634ZM14.3817 194.332V192.651H49.4625V194.332H14.3817ZM14.3817 189.515H49.4625V191.035H14.3817V189.515ZM28.7312 169.179C29.2323 169.531 29.712 169.841 30.162 170.197C30.6192 170.556 31.0459 170.961 31.4849 171.348C33.2073 169.82 33.8068 169.369 34.2885 169.251C33.7349 170.297 33.0511 171.235 32.2364 172.093C33.0401 172.945 33.7203 173.856 34.2183 174.909C33.1907 174.373 32.2995 173.656 31.4849 172.816C31.176 173.101 30.8948 173.381 30.5995 173.632C30.2979 173.888 29.9875 174.129 29.6749 174.359C29.3692 174.583 29.0631 174.807 28.6984 174.928C29.2229 173.863 29.9177 172.945 30.6948 172.1C29.2333 170.32 28.7797 169.659 28.7312 169.179ZM18.1645 174.237C18.6255 173.655 20.9744 172.229 22.8792 171.073C24.6328 170.009 26.1807 169.035 27.5609 168.103L27.4599 168.208C27.452 168.427 27.5885 168.633 27.8385 168.707C27.9911 168.745 28.0749 168.825 28.1489 168.964C28.7167 170.051 29.3968 171.056 30.2281 171.949L30.3292 172.089L30.1344 172.337C29.3604 173.189 28.7203 174.139 28.176 175.165C28.0953 175.327 28.0041 175.433 27.824 175.491C27.4943 175.592 27.4197 175.815 27.5317 176.179C27.9411 176.244 28.0479 176.179 28.2 175.784L28.3787 175.549C29.4812 174.921 30.4943 174.167 31.3989 173.256L31.4907 173.213L31.7375 173.433C32.5443 174.236 33.4484 174.893 34.4187 175.455C34.5937 175.556 34.7312 175.644 34.7885 175.877C34.8599 176.167 35.0369 176.229 35.4041 176.184C35.5276 175.821 35.4593 175.605 35.1375 175.493C34.9812 175.439 34.8729 175.368 34.7921 175.211C34.2333 174.132 33.5568 173.14 32.7391 172.257L32.6156 172.096C32.9135 171.731 33.2312 171.395 33.4927 171.017C33.9339 170.376 34.3421 169.712 34.7536 169.048C34.8547 168.895 34.9224 168.748 35.1317 168.692C35.4333 168.616 35.5016 168.42 35.4411 168.029C35.0901 167.915 34.8859 167.997 34.7755 168.333C34.7276 168.484 34.6687 168.587 34.5323 168.668C33.452 169.275 32.4552 170.012 31.5792 170.909L31.4692 170.983L31.2959 170.832C30.4484 169.977 29.4927 169.279 28.4593 168.689C28.324 168.612 28.2208 168.532 28.176 168.348C28.1229 168.112 27.9432 167.993 27.7536 167.973C29.5833 166.727 31.0516 165.571 31.9099 164.484C33.424 166.4 36.6505 168.264 40.0125 170.205C42.1864 171.46 45.4708 173.359 45.6833 174.12C45.6792 181.376 47.352 185.641 48.4807 187.696H15.3979C16.5271 185.681 18.1401 181.529 18.1645 174.237ZM26.5943 154.741C26.5943 151.805 28.9812 149.417 31.9187 149.416H31.9224C34.8599 149.417 37.2479 151.805 37.2479 154.741C37.2479 157.679 34.8583 160.068 31.9208 160.068C28.9833 160.068 26.5943 157.679 26.5943 154.741ZM55.7948 227.18C55.5224 226.722 55.2464 226.273 54.9953 225.765C54.502 226.597 54.0396 227.416 53.5557 228.181C53.0817 228.928 52.5776 229.611 52.0115 230.092C52.0787 229.701 52.1735 229.368 52.2703 229.042C52.8025 227.329 53.4183 225.752 54.1604 224.251C53.2776 222.471 52.5615 220.568 52.0151 218.404C52.7011 219.104 53.3187 219.984 53.9104 220.942L55.7948 227.18ZM48.4692 195.948H50.2692C50.7161 195.948 51.0776 195.585 51.0776 195.14V188.509L51.0635 188.473L51.0203 188.371C50.9839 188.187 50.9145 188.027 50.7765 187.911C50.4271 187.475 47.4953 183.523 47.4953 174.08C47.4953 172.503 45.2416 171.127 40.9203 168.631C37.7 166.769 32.8301 163.957 32.8301 162.291C32.8301 162.017 32.7 161.792 32.5109 161.625C36.0583 161.32 38.8635 158.368 38.8635 154.741C38.8635 151.159 36.1244 148.236 32.6359 147.872V-112H31.2063V147.872C27.7172 148.236 24.9781 151.159 24.9781 154.741C24.9781 158.369 27.7833 161.321 31.3344 161.625C31.1437 161.792 31.0125 162.017 31.0125 162.291C31.0125 164.009 25.3312 167.459 21.9339 169.52C17.7817 172.04 16.3468 172.968 16.3468 174.08C16.3468 183.989 13.3781 187.572 13.0817 187.905C12.9516 188.009 12.8911 188.153 12.8448 188.317L12.7859 188.46L12.7651 188.509V195.14C12.7651 195.585 13.1276 195.948 13.5744 195.948H15.3735L0 246.841L15.5041 298.168H12.7651V307.516H51.0776V298.168H48.3396L63.8437 246.841L48.4692 195.948Z"
    fill="currentColor" />
  <path
    d="M36.2459 264.104C34.75 263.335 33.4339 262.335 32.2588 261.157C31.6011 261.713 31 262.265 30.3511 262.757C29.6911 263.256 28.9853 263.693 28.2979 264.157L28.1911 264.032C28.9744 262.6 29.9781 261.325 31.1192 260.135C29.9411 258.932 28.9563 257.66 28.2312 256.195C29.7203 256.964 31.0255 257.959 32.2276 259.154C33.424 257.968 34.7093 256.968 36.1911 256.225C35.4755 257.713 34.4552 258.967 33.3301 260.154C34.5255 261.352 35.4959 262.644 36.2459 264.104ZM36.9907 255.868C37.0984 255.668 37.2115 255.516 37.4573 255.439C37.9573 255.285 38.0495 255.065 37.9391 254.504C37.3968 254.361 37.176 254.471 36.9755 254.936C36.9057 255.092 36.8104 255.28 36.6708 255.357C35.0683 256.241 33.5916 257.295 32.2588 258.612C32.1328 258.515 32.0145 258.435 31.912 258.339C30.7077 257.191 29.3604 256.24 27.9068 255.436C27.7099 255.33 27.5459 255.237 27.4744 254.976C27.3364 254.481 27.1104 254.387 26.5385 254.471C26.3713 254.969 26.4853 255.271 26.9489 255.43C27.1525 255.5 27.3068 255.575 27.4135 255.777C28.2391 257.305 29.2375 258.711 30.4411 259.965L30.5719 260.159C30.4672 260.28 30.3765 260.396 30.2755 260.503C29.1677 261.671 28.2557 262.977 27.4823 264.383C27.3531 264.617 27.2192 264.789 26.9271 264.861C26.5885 264.942 26.3755 265.292 26.4468 265.581L26.7224 265.864C27.0057 265.941 27.3552 265.727 27.4511 265.395C27.5224 265.14 27.6396 264.987 27.8713 264.859C29.364 264.049 30.7427 263.073 31.9651 261.889L32.2297 261.671C32.3563 261.781 32.4703 261.875 32.5735 261.975C33.7516 263.099 35.0692 264.027 36.4907 264.815C36.7385 264.951 36.9301 265.088 37.0161 265.404C37.1297 265.828 37.4625 265.928 37.9464 265.78C38.0401 265.217 37.9411 264.988 37.4573 264.837C37.2568 264.776 37.1359 264.689 37.0401 264.513C36.2093 262.968 35.1984 261.549 33.976 260.284L33.8807 260.125L34.1244 259.834C35.2645 258.646 36.1964 257.305 36.9907 255.868Z"
    fill="currentColor" />
  <path
    d="M32.2202 289.693C31.0145 290.901 29.7172 291.891 28.2312 292.646C28.9724 291.179 29.9541 289.9 31.0937 288.74C30.5458 288.083 30.0109 287.469 29.5073 286.83C29.0093 286.195 28.563 285.518 28.2301 284.76C29.7202 285.524 31.0306 286.527 32.2244 287.723C33.426 286.529 34.7093 285.536 36.191 284.797C35.4645 286.265 34.4754 287.529 33.327 288.712C34.5088 289.904 35.4926 291.201 36.2426 292.669C34.7406 291.9 33.4301 290.888 32.2202 289.693ZM37.0582 293.089C36.2052 291.534 35.1833 290.099 33.9484 288.82L33.8806 288.695L34.191 288.329C35.274 287.189 36.165 285.913 36.9301 284.546C37.077 284.285 37.1984 284.049 37.5494 283.972C37.891 283.899 38.0713 283.548 37.9937 283.239L37.7536 282.997C37.4442 282.917 37.0953 283.097 37.0161 283.437C36.939 283.787 36.7073 283.912 36.4464 284.059C35.062 284.834 33.7697 285.735 32.6192 286.835C32.5016 286.948 32.3744 287.049 32.2297 287.175C32.0885 287.054 31.9593 286.954 31.8421 286.841C30.677 285.732 29.3692 284.818 27.9672 284.039C27.7172 283.9 27.5202 283.771 27.4448 283.451C27.3677 283.108 27.0297 282.947 26.713 282.981C26.5297 283.003 26.4541 283.108 26.4358 283.272C26.3994 283.568 26.5958 283.888 26.9317 283.991C27.1677 284.059 27.3182 284.163 27.4338 284.379C28.2426 285.871 29.215 287.249 30.3968 288.477L30.577 288.708C30.4724 288.836 30.3874 288.952 30.2885 289.056C29.1781 290.221 28.2666 291.528 27.4874 292.932C27.3625 293.161 27.2464 293.353 26.941 293.421C26.5958 293.5 26.3864 293.835 26.4448 294.132L26.7062 294.428C27.0005 294.515 27.3604 294.284 27.463 293.924C27.5276 293.709 27.6082 293.567 27.8088 293.46C29.3713 292.617 30.8052 291.596 32.0749 290.353L32.2297 290.253C32.75 290.699 33.2385 291.181 33.7901 291.577C34.665 292.207 35.5749 292.783 36.4776 293.371C36.713 293.522 36.9573 293.617 37.0109 293.959C37.0349 294.108 37.2125 294.261 37.3582 294.357C37.5306 294.472 37.7942 294.53 37.915 294.342C38.0052 294.207 38.0052 293.928 37.9202 293.781C37.8234 293.611 37.5916 293.515 37.4224 293.387C37.2958 293.289 37.1297 293.216 37.0582 293.089Z"
    fill="currentColor" />
  <path
    d="M28.9338 283.352C29.0994 283.553 29.3344 283.693 29.5682 283.605C29.9432 283.46 30.1708 283.657 30.4156 283.852C30.8806 284.221 31.3344 284.603 31.7942 284.977C31.9358 285.093 32.0749 285.211 32.2172 285.328C32.8312 284.829 33.415 284.348 34.0088 283.873C34.2666 283.665 34.5057 283.483 34.9041 283.6C35.2588 283.707 35.5994 283.396 35.6598 283.036C35.7224 282.659 35.5036 282.309 35.1505 282.221C34.7609 282.125 34.3494 282.325 34.2958 282.725C34.2464 283.105 34.038 283.299 33.7677 283.508C33.2557 283.905 32.7645 284.328 32.2353 284.768C31.5901 284.249 30.963 283.759 30.3625 283.239C30.2464 283.14 30.226 282.92 30.1801 282.749C30.0973 282.452 29.9134 282.267 29.6104 282.215C29.2942 282.157 29.0093 282.299 28.8604 282.572C28.7202 282.832 28.7442 283.124 28.9338 283.352Z"
    fill="currentColor" />
  <path
    d="M40.0177 242.975C39.9406 243.372 40.165 243.768 40.5634 243.795C40.8968 243.818 41.051 243.992 41.2254 244.215C41.665 244.765 42.115 245.301 42.5656 245.853C42.0604 246.479 41.5713 247.105 41.0562 247.709C40.9645 247.816 40.7729 247.849 40.6229 247.885C40.3244 247.956 40.1057 248.105 40.0292 248.407C39.9552 248.697 40.0229 248.959 40.2677 249.153C40.4864 249.327 40.8134 249.357 41.0541 249.22C41.3192 249.065 41.5 248.808 41.402 248.525C41.2792 248.153 41.4484 247.925 41.6478 247.677C42.1349 247.071 42.624 246.471 43.124 245.856C42.6593 245.289 42.1973 244.735 41.7478 244.172C41.5088 243.873 41.2713 243.603 41.4041 243.136C41.5068 242.775 41.1186 242.418 40.7364 242.401C40.4 242.384 40.0786 242.641 40.0177 242.975Z"
    fill="currentColor" />
  <path
    d="M29.5167 255.037C29.9593 254.911 30.2203 255.13 30.5073 255.355C30.8 255.581 31.0921 255.813 31.3765 256.049C31.662 256.283 31.9369 256.528 32.2131 256.765C32.8323 256.263 33.4187 255.781 34.0088 255.305C34.2697 255.096 34.5109 254.92 34.9077 255.036C35.2645 255.14 35.6005 254.829 35.6599 254.464C35.7203 254.089 35.5 253.741 35.1448 253.656C34.7557 253.561 34.3453 253.76 34.2959 254.161C34.2464 254.544 34.0328 254.736 33.7625 254.944C33.2516 255.341 32.7625 255.765 32.2276 256.208C32.1104 256.112 31.9812 256.013 31.8582 255.911C31.4448 255.568 31.0385 255.217 30.6156 254.885C30.3765 254.7 30.1859 254.536 30.162 254.183C30.1344 253.788 29.7224 253.571 29.3271 253.652C28.9984 253.72 28.7484 254.049 28.7703 254.384C28.7959 254.767 29.1505 255.14 29.5167 255.037Z"
    fill="currentColor" />
  <path
    d="M23.6719 242.405C23.2573 242.453 22.9651 242.8 23.0631 243.242C23.1328 243.565 23.0203 243.776 22.8401 243.995C22.4525 244.469 22.0667 244.947 21.6787 245.42C21.5645 245.563 21.4468 245.704 21.3208 245.853C21.7875 246.423 22.2375 246.963 22.6771 247.511C22.9307 247.824 23.1787 248.115 23.0557 248.6C22.9672 248.963 23.3088 249.273 23.6839 249.301C24.0427 249.328 24.3459 249.111 24.4328 248.768C24.5224 248.409 24.3369 247.984 23.9651 247.944C23.5073 247.9 23.3088 247.596 23.0667 247.299C22.6828 246.821 22.2875 246.356 21.8683 245.851C22.0645 245.625 22.2593 245.407 22.4448 245.18C22.7323 244.837 23.0151 244.492 23.2833 244.136C23.4249 243.952 23.5609 243.832 23.8197 243.807C24.2703 243.763 24.5187 243.392 24.4396 242.988C24.3713 242.625 24.0244 242.363 23.6719 242.405Z"
    fill="currentColor" />
  <path
    d="M35 293.818C34.45 293.968 34.1244 293.642 33.7718 293.359C33.2666 292.951 32.7686 292.534 32.2297 292.088C31.6244 292.583 31.0516 293.052 30.476 293.517C30.202 293.737 29.9484 293.93 29.5276 293.823C29.1437 293.724 28.8016 294.069 28.7702 294.459C28.741 294.812 29.0186 295.153 29.3786 295.209C29.7625 295.271 30.1306 295.03 30.1708 294.616C30.1984 294.341 30.3197 294.189 30.5218 294.032C31.0921 293.591 31.6448 293.123 32.2224 292.651C32.8604 293.167 33.4978 293.669 34.1177 294.196C34.2093 294.273 34.2202 294.457 34.2536 294.595C34.3161 294.865 34.4484 295.073 34.7224 295.171C34.9958 295.269 35.2921 295.203 35.4864 294.989C35.6817 294.776 35.7145 294.524 35.6306 294.261C35.5473 293.993 35.2697 293.744 35 293.818Z"
    fill="currentColor" />
  <path
    d="M23.826 272.388C24.2687 272.292 24.5203 271.956 24.4396 271.551C24.3703 271.188 24.0224 270.927 23.6677 270.969C23.2563 271.02 22.9729 271.365 23.0609 271.811C23.1203 272.104 23.0448 272.309 22.8713 272.517C22.4749 273.007 22.0776 273.497 21.6787 273.987C21.5631 274.129 21.4459 274.271 21.3208 274.42C21.7765 274.976 22.214 275.503 22.6437 276.035C22.9068 276.363 23.1828 276.659 23.0557 277.167C22.9672 277.534 23.3109 277.841 23.688 277.868C24.0464 277.893 24.3495 277.676 24.4339 277.33C24.5224 276.972 24.3312 276.546 23.964 276.511C23.502 276.467 23.3088 276.156 23.0645 275.86C22.6787 275.387 22.2875 274.918 21.8844 274.436C22.4016 273.792 22.9047 273.152 23.4307 272.53C23.5093 272.437 23.688 272.417 23.826 272.388Z"
    fill="currentColor" />
  <path
    d="M29.5187 266.653C29.8473 266.636 30.1577 266.417 30.1656 266.077C30.1708 265.735 30.3713 265.595 30.5901 265.417C31.1416 264.981 31.6801 264.53 32.2224 264.084C32.8635 264.603 33.4927 265.093 34.0937 265.615C34.2115 265.716 34.2244 265.941 34.2755 266.112C34.3927 266.507 34.7557 266.727 35.1317 266.63C35.5145 266.539 35.7406 266.165 35.652 265.773C35.5734 265.415 35.2557 265.171 34.8563 265.259C34.538 265.328 34.3235 265.232 34.1005 265.047C33.6265 264.66 33.1505 264.273 32.6749 263.885C32.5328 263.771 32.3948 263.651 32.2333 263.515C31.7885 263.884 31.3635 264.24 30.9339 264.592C30.7353 264.754 30.5219 264.907 30.3219 265.072C30.1104 265.242 29.9068 265.311 29.6125 265.261C29.0552 265.164 28.6473 265.64 28.8016 266.139C28.9025 266.46 29.1911 266.668 29.5187 266.653Z"
    fill="currentColor" />
  <path
    d="M38.1598 262.136C37.9 262.111 37.7661 261.989 37.6244 261.809C37.1869 261.254 36.7364 260.712 36.274 260.148C36.7718 259.53 37.2568 258.901 37.7792 258.301C37.8786 258.185 38.1134 258.193 38.2844 258.136C38.6686 258.012 38.8686 257.64 38.7625 257.253C38.6593 256.888 38.2609 256.671 37.8797 256.78C37.527 256.875 37.2942 257.213 37.3989 257.599C37.4754 257.879 37.3895 258.064 37.2349 258.259C36.7363 258.88 36.2364 259.499 35.7224 260.144C36.2364 260.784 36.7254 261.391 37.2145 261.997C37.3838 262.205 37.4666 262.405 37.3948 262.704C37.2901 263.123 37.5984 263.489 38.0068 263.54C38.3634 263.58 38.7145 263.317 38.7749 262.959C38.8483 262.539 38.6098 262.183 38.1598 262.136Z"
    fill="currentColor" />
  <path
    d="M38.1812 290.705C37.9 290.677 37.7568 290.546 37.6026 290.347C37.1802 289.807 36.7386 289.28 36.2771 288.715L36.524 288.387C36.8416 287.999 37.1781 287.624 37.4776 287.225C37.6853 286.953 37.8787 286.742 38.2626 286.695C38.6631 286.642 38.8635 286.232 38.7662 285.841C38.6802 285.488 38.3287 285.267 37.9552 285.328C37.5916 285.391 37.2807 285.73 37.3875 286.087C37.5088 286.488 37.3192 286.725 37.1135 286.984C36.7661 287.42 36.4099 287.849 36.0583 288.28C35.9411 288.42 35.825 288.561 35.7115 288.697C36.2131 289.318 36.6921 289.908 37.1687 290.503C37.3525 290.735 37.4927 290.952 37.3896 291.305C37.2807 291.683 37.6025 292.042 37.9864 292.101C38.3375 292.156 38.7016 291.9 38.774 291.546C38.8563 291.13 38.6208 290.748 38.1812 290.705Z"
    fill="currentColor" />
  <path
    d="M26.8661 261.761C26.702 261.979 26.5426 262.116 26.2432 262.141C25.8369 262.18 25.601 262.567 25.6708 262.952C25.7374 263.311 26.0849 263.58 26.4358 263.541C26.827 263.499 27.1473 263.163 27.0568 262.765C26.9692 262.377 27.1192 262.128 27.3349 261.865C27.7906 261.304 28.2484 260.742 28.7353 260.144C28.2426 259.534 27.7614 258.946 27.2869 258.351C27.103 258.12 26.963 257.903 27.0516 257.548C27.1568 257.139 26.8573 256.807 26.465 256.759C26.0885 256.713 25.7557 256.942 25.6749 257.305C25.5921 257.687 25.813 258.095 26.2192 258.136C26.5921 258.173 26.7593 258.397 26.9562 258.642C27.3494 259.134 27.7536 259.616 28.1948 260.151C28.0568 260.307 27.9134 260.468 27.7797 260.634C27.4708 261.008 27.1568 261.373 26.8661 261.761Z"
    fill="currentColor" />
  <path
    d="M26.8494 291.9C26.9724 291.739 27.0994 291.473 27.0478 291.305C26.938 290.929 27.1234 290.7 27.3182 290.454C27.7817 289.876 28.252 289.303 28.7353 288.707C28.3036 288.177 27.8677 287.652 27.441 287.116C27.1896 286.803 26.9286 286.52 27.0552 286.029C27.1505 285.667 26.813 285.355 26.438 285.321C26.0792 285.291 25.7744 285.504 25.6838 285.847C25.5885 286.204 25.7702 286.634 26.1396 286.673C26.6182 286.725 26.824 287.046 27.074 287.36C27.4338 287.808 27.8068 288.242 28.1838 288.7C27.6801 289.324 27.202 289.893 26.752 290.485C26.601 290.683 26.412 290.664 26.2172 290.705C25.9046 290.768 25.6932 291.015 25.6604 291.323C25.6328 291.6 25.7817 291.881 26.0353 292.018C26.3088 292.168 26.6582 292.148 26.8494 291.9Z"
    fill="currentColor" />
  <path
    d="M32.1708 203.484C32.8385 202.927 33.452 202.388 34.0937 201.885C34.7276 201.392 35.3948 200.937 36.1468 200.621C35.3859 202.113 34.3839 203.412 33.1869 204.62C34.4041 205.817 35.3989 207.14 36.1708 208.632C34.6853 207.881 33.3948 206.879 32.1984 205.715C31.0093 206.883 29.7484 207.859 28.2943 208.583C29.0297 207.083 30.0479 205.804 31.2131 204.603C30.0073 203.404 29.0276 202.104 28.2645 200.621C29.7312 201.36 31.0219 202.344 32.1708 203.484ZM26.9651 199.843C27.1989 199.908 27.3495 200.008 27.4651 200.224C28.2927 201.752 29.2943 203.153 30.5036 204.404L30.6547 204.592C30.0588 205.316 29.4563 205.976 28.9339 206.695C28.412 207.416 27.9651 208.192 27.4943 208.948C27.3755 209.14 27.2724 209.299 27.0224 209.375C26.5276 209.524 26.4359 209.754 26.5516 210.311C27.0943 210.447 27.3109 210.336 27.5115 209.871C27.5792 209.713 27.6801 209.528 27.8197 209.451C29.3735 208.592 30.8088 207.575 32.0885 206.339L32.2183 206.273L32.5349 206.539C33.702 207.648 35.0088 208.56 36.4099 209.339C36.6599 209.479 36.8599 209.605 36.9301 209.93C37 210.252 37.3011 210.404 37.6099 210.397C37.8473 210.392 37.9411 210.264 37.9411 210.042C37.9411 209.735 37.7552 209.479 37.3797 209.369C37.1599 209.305 37.0443 209.184 36.9411 208.993C36.0995 207.452 35.0896 206.032 33.8583 204.776L33.7407 204.617L34.0167 204.288C35.1541 203.097 36.0937 201.765 36.8896 200.328C37.0161 200.097 37.1359 199.909 37.4369 199.84C37.7807 199.764 37.9907 199.425 37.9281 199.127L37.6631 198.836C37.3677 198.752 37.0161 198.98 36.9099 199.345C36.8453 199.559 36.7588 199.7 36.5604 199.807C35.0307 200.632 33.6244 201.628 32.3765 202.839L32.2115 202.957L31.8787 202.693C30.6984 201.575 29.3807 200.645 27.9563 199.865C27.7151 199.733 27.5516 199.591 27.4781 199.304C27.3937 198.971 27.0448 198.781 26.7505 198.825C26.5812 198.848 26.4891 198.94 26.476 199.119C26.452 199.44 26.6161 199.743 26.9651 199.843Z"
    fill="currentColor" />
  <path
    d="M31.2151 233.168C29.9964 231.96 29.0187 230.654 28.2593 229.179C29.7375 229.925 31.0187 230.918 32.176 232.042C32.8416 231.487 33.4573 230.949 34.0995 230.449C34.7312 229.952 35.3989 229.505 36.1468 229.185C35.3859 230.68 34.3787 231.98 33.1891 233.187C34.4005 234.377 35.3859 235.695 36.1609 237.189C34.7 236.441 33.4025 235.467 32.2385 234.307C31.5953 234.848 30.9812 235.387 30.3385 235.887C29.7063 236.38 29.0479 236.841 28.2849 237.142C29.0317 235.648 30.0531 234.369 31.2151 233.168ZM27.4943 238.447C27.5609 238.239 27.6489 238.093 27.8473 237.987C29.3937 237.152 30.8088 236.14 32.0735 234.916L32.2093 234.836L32.5255 235.092C33.702 236.215 35.024 237.141 36.4443 237.923C36.6817 238.054 36.8525 238.185 36.924 238.479C37.0088 238.825 37.3271 238.989 37.6489 238.959C37.8265 238.944 37.9131 238.848 37.9369 238.681C37.9776 238.385 37.7828 238.067 37.4536 237.952C37.2568 237.884 37.0844 237.835 36.9724 237.624C36.1063 236.012 35.0495 234.535 33.7312 233.213L33.9667 232.905C35.1359 231.692 36.0973 230.33 36.9057 228.859C37.0249 228.644 37.1396 228.476 37.4224 228.412C37.7719 228.335 37.9615 228.013 37.9411 227.709C37.9281 227.512 37.8249 227.403 37.6287 227.387C37.3213 227.361 37.0177 227.549 36.9131 227.895C36.8484 228.101 36.7807 228.256 36.5749 228.364C35.0479 229.188 33.6396 230.183 32.3875 231.392L32.1948 231.527L31.9301 231.309C30.7297 230.159 29.3807 229.208 27.9229 228.412C27.6932 228.289 27.5588 228.144 27.4833 227.887C27.3916 227.547 27.0631 227.351 26.7667 227.389C26.6031 227.407 26.4984 227.484 26.4781 227.668C26.4448 227.985 26.6073 228.318 26.9489 228.399C27.2687 228.473 27.3953 228.673 27.5369 228.923C28.3161 230.324 29.2301 231.63 30.3401 232.795C30.452 232.912 30.5531 233.044 30.6708 233.18L30.4047 233.493C29.2505 234.693 28.3016 236.042 27.502 237.499C27.3807 237.718 27.252 237.876 26.9853 237.951C26.6031 238.052 26.4099 238.381 26.4932 238.708L26.7375 238.947C27.0661 239.023 27.3735 238.828 27.4943 238.447Z"
    fill="currentColor" />
  <path
    d="M26.2615 202.551C26.5959 202.571 26.7536 202.745 26.9249 202.973C27.1344 203.255 27.3583 203.527 27.5834 203.796C27.8088 204.065 28.0407 204.327 28.2724 204.597C27.7536 205.236 27.2687 205.868 26.7443 206.464C26.6328 206.591 26.3916 206.609 26.2063 206.672C25.8198 206.799 25.6183 207.164 25.7208 207.551C25.8197 207.917 26.2172 208.135 26.5995 208.033C26.9489 207.94 27.1948 207.603 27.0886 207.221C27.0036 206.915 27.114 206.719 27.2776 206.516C27.6729 206.025 28.0719 205.539 28.4724 205.049C28.5864 204.908 28.7042 204.769 28.8271 204.62C28.364 204.055 27.9135 203.515 27.476 202.968C27.2224 202.655 26.9599 202.375 27.1011 201.885C27.199 201.545 26.8474 201.208 26.4834 201.16C26.1307 201.115 25.7744 201.379 25.7099 201.735C25.6396 202.131 25.8604 202.527 26.2615 202.551Z"
    fill="currentColor" />
  <path
    d="M26.226 235.23C25.8333 235.353 25.6234 235.707 25.7172 236.095C25.8057 236.469 26.1896 236.696 26.5792 236.605C26.9317 236.522 27.1989 236.18 27.0942 235.807C27.0005 235.48 27.1234 235.273 27.2978 235.054C27.55 234.732 27.7978 234.407 28.0568 234.092C28.3036 233.792 28.563 233.504 28.8312 233.196C28.2978 232.539 27.8052 231.937 27.3182 231.329C27.1328 231.099 26.991 230.883 27.0942 230.525C27.2062 230.148 26.8896 229.792 26.5036 229.729C26.1525 229.673 25.7869 229.928 25.715 230.279C25.6276 230.692 25.8625 231.08 26.2958 231.125C26.5697 231.154 26.7224 231.275 26.8786 231.476C27.324 232.042 27.7885 232.595 28.2614 233.171C27.752 233.804 27.252 234.444 26.7244 235.056C26.6254 235.172 26.3953 235.179 26.226 235.23Z"
    fill="currentColor" />
  <path
    d="M37.3249 201.993C37.3948 202.317 37.2828 202.527 37.1025 202.748C36.7166 203.221 36.3286 203.699 35.941 204.173C35.827 204.315 35.7093 204.455 35.5734 204.62C35.8322 204.919 36.077 205.193 36.3104 205.48C36.5822 205.808 36.8396 206.151 37.1082 206.483C37.288 206.707 37.3948 206.917 37.3213 207.239C37.2333 207.616 37.452 207.923 37.7792 208.027C38.1577 208.147 38.5494 207.952 38.676 207.577C38.803 207.205 38.6186 206.744 38.2297 206.703C37.774 206.648 37.5713 206.355 37.3286 206.053C36.9464 205.576 36.5494 205.109 36.1448 204.624C36.6598 203.984 37.163 203.344 37.689 202.723C37.7661 202.631 37.9421 202.608 38.0801 202.576C38.5249 202.481 38.7792 202.149 38.7036 201.743C38.6358 201.383 38.288 201.12 37.9333 201.157C37.5218 201.207 37.2276 201.553 37.3249 201.993Z"
    fill="currentColor" />
  <path
    d="M38.0822 231.144C38.5249 231.042 38.7806 230.713 38.7036 230.308C38.6338 229.948 38.2858 229.684 37.9312 229.725C37.5218 229.773 37.2276 230.12 37.3249 230.56C37.3948 230.884 37.2828 231.093 37.1025 231.313C36.7166 231.789 36.3286 232.264 35.941 232.74C35.8249 232.88 35.7093 233.022 35.5734 233.187C35.8322 233.487 36.077 233.76 36.312 234.047C36.5822 234.376 36.8416 234.717 37.1082 235.049C37.288 235.272 37.3948 235.487 37.3192 235.807C37.2333 236.183 37.4536 236.489 37.7792 236.592C38.1598 236.712 38.551 236.515 38.676 236.142C38.803 235.768 38.6177 235.311 38.2276 235.267C37.7677 235.215 37.5713 234.917 37.3286 234.618C36.9442 234.141 36.5494 233.677 36.141 233.189C36.6686 232.536 37.15 231.924 37.6541 231.33C37.7458 231.225 37.9312 231.177 38.0822 231.144Z"
    fill="currentColor" />
  <path
    d="M34.8692 209.773C34.4041 209.907 34.1306 209.667 33.8301 209.427C33.2958 208.997 32.7686 208.56 32.2062 208.101C31.5994 208.596 31.0254 209.063 30.4468 209.525C30.202 209.723 29.9744 209.891 29.5953 209.777C29.2374 209.669 28.8953 209.968 28.8292 210.33C28.7593 210.704 28.9744 211.06 29.3249 211.152C29.7114 211.252 30.1489 211.057 30.1838 210.66C30.2192 210.234 30.4853 210.061 30.7573 209.841C31.2353 209.46 31.7041 209.065 32.202 208.652C32.691 209.055 33.1708 209.453 33.6557 209.848C33.924 210.065 34.213 210.224 34.2244 210.667C34.2364 211.028 34.6541 211.232 35.0306 211.161C35.3858 211.096 35.6468 210.741 35.6005 210.385C35.551 210.02 35.213 209.673 34.8692 209.773Z"
    fill="currentColor" />
  <path
    d="M23.9286 220.904C23.5666 220.884 23.4134 220.677 23.2281 220.444C22.824 219.935 22.4068 219.439 21.9672 218.904C22.464 218.287 22.9306 217.687 23.4229 217.109C23.515 217.003 23.7025 216.961 23.8552 216.928C24.1516 216.86 24.3734 216.712 24.4541 216.412C24.5333 216.123 24.4672 215.86 24.2229 215.659C24.0073 215.485 23.6806 215.451 23.438 215.589C23.1697 215.74 22.9858 216 23.0812 216.279C23.2208 216.68 23.0134 216.916 22.8077 217.175C22.3552 217.739 21.8973 218.297 21.4145 218.892L21.6677 219.228C22.0317 219.672 22.403 220.112 22.765 220.561C22.9932 220.848 23.2062 221.108 23.0812 221.552C22.9801 221.917 23.3552 222.273 23.739 222.296C24.0776 222.317 24.4025 222.065 24.4692 221.732C24.5464 221.337 24.326 220.927 23.9286 220.904Z"
    fill="currentColor" />
  <path
    d="M29.3692 239.727C29.7426 239.801 30.1546 239.609 30.1801 239.236C30.2114 238.783 30.5109 238.611 30.7942 238.379C31.2686 237.997 31.7353 237.605 32.202 237.223C32.803 237.709 33.3301 238.151 33.8692 238.576C34.053 238.72 34.1942 238.847 34.1942 239.112C34.1942 239.423 34.3926 239.628 34.691 239.711C34.9812 239.791 35.2426 239.721 35.441 239.48C35.6306 239.251 35.6577 238.954 35.5125 238.696C35.3614 238.429 35.1046 238.246 34.8234 238.337C34.426 238.472 34.1853 238.272 33.9281 238.067C33.3614 237.617 32.803 237.153 32.213 236.673L31.8765 236.921C31.4301 237.285 30.9926 237.66 30.5442 238.017C30.2593 238.246 29.9984 238.475 29.5516 238.337C29.2041 238.234 28.8661 238.571 28.8218 238.94C28.7754 239.317 29.0114 239.657 29.3692 239.727Z"
    fill="currentColor" />
  <path
    d="M29.6031 199.44C29.9797 199.337 30.2077 199.507 30.452 199.701C31.0307 200.165 31.6047 200.636 32.202 201.121C32.8292 200.616 33.4208 200.137 34.0125 199.659C34.2297 199.481 34.4391 199.365 34.7645 199.439C35.2052 199.533 35.5511 199.244 35.6025 198.831C35.6427 198.477 35.3859 198.129 35.0219 198.06C34.6156 197.98 34.2443 198.229 34.202 198.676C34.1729 198.937 34.0552 199.071 33.8713 199.213C33.3183 199.651 32.7755 200.101 32.2093 200.564C31.5953 200.069 30.9672 199.584 30.3677 199.064C30.2516 198.961 30.2536 198.729 30.1984 198.559C30.0735 198.168 29.7 197.964 29.324 198.075C28.9432 198.185 28.7353 198.568 28.8385 198.953C28.9287 199.287 29.2391 199.539 29.6031 199.44Z"
    fill="currentColor" />
  <path
    d="M35.0125 226.623C34.6489 226.557 34.2443 226.775 34.2167 227.141C34.1891 227.512 33.9885 227.688 33.7333 227.888C33.2203 228.285 32.7276 228.708 32.2093 229.134C31.5921 228.636 31.0276 228.156 30.4339 227.711C30.2115 227.542 30.2667 227.316 30.1968 227.115C30.0661 226.732 29.6911 226.529 29.3161 226.646C28.938 226.759 28.7312 227.141 28.8421 227.527C28.9359 227.859 29.2464 228.105 29.6104 228.005C29.9631 227.908 30.1839 228.053 30.4156 228.239C31.0093 228.713 31.5953 229.195 32.2063 229.688C32.7407 229.253 33.2645 228.818 33.7979 228.389C34.1115 228.137 34.4005 227.889 34.8859 228.008C35.2443 228.097 35.564 227.759 35.6025 227.389C35.6411 227.036 35.3744 226.691 35.0125 226.623Z"
    fill="currentColor" />
  <path
    d="M9.99589 260.596C10.0875 261.248 9.92242 261.624 9.75522 262.041C9.44215 262.825 9.12295 263.597 8.80109 264.388C9.14789 265.246 9.48802 266.083 9.82655 266.928C9.96455 267.273 10.0839 267.592 9.99589 268.111C9.92922 268.507 10.0541 268.864 10.2401 269.079C10.4052 269.272 10.6333 269.227 10.7823 268.987C10.9536 268.713 11.0011 268.351 10.9495 267.947C10.8964 267.525 10.7438 267.317 10.538 267.218C10.4312 267.168 10.2995 267.121 10.238 266.972C9.87815 266.13 9.54015 265.257 9.18641 264.385C9.50108 263.616 9.81348 262.867 10.1187 262.101C10.2401 261.792 10.3484 261.548 10.5801 261.516C10.8557 261.479 11.0104 260.925 10.9588 260.372C10.9167 259.907 10.6922 259.549 10.4588 259.572C10.1922 259.597 9.92402 260.093 9.99589 260.596Z"
    fill="currentColor" />
  <path
    d="M14.5082 277.188C14.7844 277.027 14.9516 277.273 15.1312 277.564C15.541 278.229 15.9495 278.899 16.3792 279.6C16.5724 279.268 16.7635 278.928 16.9599 278.601C17.1583 278.272 17.3609 277.951 17.5634 277.634C17.765 277.32 17.9437 277.013 18.2541 277.191C18.5062 277.334 18.752 276.815 18.7692 276.28C18.7875 275.812 18.6151 275.352 18.3833 275.257C18.1088 275.144 17.8224 275.448 17.8036 275.999C17.7875 276.492 17.6552 276.718 17.4901 276.98C17.1959 277.44 16.9125 277.93 16.626 278.408C16.5396 278.551 16.4525 278.689 16.3682 278.823C15.9968 278.207 15.6573 277.615 15.3025 277.061C15.1167 276.769 14.9677 276.504 14.9307 275.971C14.8979 275.411 14.613 275.132 14.3426 275.265C14.0968 275.385 13.9416 275.869 13.9839 276.391C14.0265 276.9 14.2604 277.334 14.5082 277.188Z"
    fill="currentColor" />
  <path
    d="M12.2016 249.625C11.9312 249.685 11.8025 250.323 11.8911 250.846C11.9771 251.364 12.2489 251.639 12.514 251.472C12.738 251.329 12.8911 250.903 12.8317 250.376C12.7801 249.932 12.8536 249.63 12.9787 249.32C13.1645 248.859 13.3448 248.381 13.5323 247.923C13.6959 247.524 13.8667 247.142 14.0453 246.724C13.9516 246.493 13.8703 246.297 13.7875 246.101C13.5213 245.437 13.2511 244.776 12.9828 244.112C12.8577 243.806 12.7801 243.515 12.8287 243.061C12.8964 242.448 12.6921 241.964 12.4052 241.899C12.1609 241.841 11.9203 242.208 11.8708 242.711C11.8172 243.277 11.9937 243.736 12.3041 243.875C12.4093 243.923 12.5359 243.988 12.6 244.137C12.9516 244.963 13.2844 245.816 13.6479 246.728C13.3667 247.407 13.0948 248.056 12.8265 248.721C12.6593 249.137 12.5192 249.552 12.2016 249.625Z"
    fill="currentColor" />
  <path
    d="M14.9828 215.325C14.9901 214.708 15.1906 214.487 15.3781 214.183C15.714 213.632 16.0484 213.076 16.3869 212.516C16.7358 213.092 17.0577 213.642 17.3901 214.173C17.5776 214.481 17.765 214.722 17.7874 215.316C17.8134 215.869 18.1182 216.141 18.3849 216.001C18.6292 215.872 18.7781 215.376 18.7322 214.857C18.6844 214.351 18.4458 213.934 18.1958 214.085C17.9328 214.242 17.7744 214.009 17.6073 213.735C17.2025 213.089 16.8036 212.437 16.3833 211.748C15.9953 212.387 15.626 212.997 15.2541 213.595C15.0484 213.93 14.8577 214.265 14.5344 214.079C14.2964 213.94 14.0614 214.424 14.0265 214.932C13.9937 215.429 14.1734 215.923 14.4218 216.015C14.6828 216.112 14.9729 215.828 14.9828 215.325Z"
    fill="currentColor" />
  <path
    d="M11.0249 230.449C11.0052 230.023 10.8557 229.693 10.641 229.576C10.5249 229.511 10.3708 229.485 10.3025 229.323C9.94732 228.504 9.61864 227.648 9.27491 226.783C9.53224 226.157 9.79105 225.547 10.0432 224.924C10.2166 224.491 10.3557 224.035 10.6921 223.963C10.9458 223.912 11.0744 223.315 11.0104 222.811C10.9443 222.304 10.7125 222.004 10.4473 222.087C10.1921 222.169 9.99158 222.608 10.0562 223.14C10.1208 223.687 10.0052 224.028 9.86304 224.396C9.68531 224.841 9.51038 225.291 9.33011 225.73C9.18531 226.088 9.03011 226.432 8.88171 226.78C9.23491 227.648 9.56558 228.469 9.89425 229.295C10.027 229.622 10.1281 229.93 10.0615 230.417C10.0292 230.654 10.113 231.024 10.1973 231.246C10.3301 231.592 10.5724 231.623 10.764 231.416C10.9406 231.227 11.0453 230.839 11.0249 230.449Z"
    fill="currentColor" />
  <path
    d="M50.1907 259.967C50.1333 260.554 50.2984 261.144 50.5927 261.185C50.8369 261.218 50.9525 261.477 51.0817 261.807C51.4073 262.621 51.7401 263.418 52.0724 264.236C51.6973 265.164 51.3391 266.093 50.9568 266.988C50.8901 267.147 50.7489 267.196 50.6369 267.251C50.4167 267.355 50.2541 267.576 50.1973 268.024C50.1421 268.454 50.1937 268.841 50.376 269.13C50.5353 269.387 50.7765 269.434 50.9547 269.228C51.1495 269 51.2833 268.62 51.212 268.2C51.1203 267.647 51.2468 267.308 51.3921 266.941C51.7541 266.042 52.1151 265.151 52.4839 264.24C52.1421 263.399 51.8025 262.577 51.4697 261.742C51.2911 261.299 51.1167 260.9 51.212 260.205C51.2896 259.671 51.002 259.142 50.7208 259.116C50.4708 259.092 50.2339 259.473 50.1907 259.967Z"
    fill="currentColor" />
  <path
    d="M46.376 293.017C46.1411 293.123 45.9807 292.977 45.8172 292.705C45.4661 292.129 45.1151 291.557 44.764 290.981C44.6593 290.811 44.5563 290.632 44.4364 290.43C44.1099 290.979 43.7953 291.507 43.4787 292.028C43.3287 292.271 43.1724 292.496 43.0249 292.741C42.8708 292.993 42.7177 293.095 42.5031 293.02C42.0896 292.876 41.7859 293.583 41.902 294.323C41.9776 294.8 42.1907 295.107 42.4292 295.087C42.676 295.06 42.9041 294.736 42.9093 294.234C42.9151 293.724 43.0635 293.515 43.2235 293.253C43.6317 292.607 44.0292 291.937 44.4292 291.275C44.9031 292.046 45.3667 292.771 45.8135 293.546C45.8979 293.697 45.9073 294.029 45.9443 294.283C46.0344 294.868 46.3005 295.193 46.5787 295.053C46.8631 294.915 47.0281 294.363 46.964 293.781C46.9052 293.249 46.6724 292.885 46.376 293.017Z"
    fill="currentColor" />
  <path
    d="M56.4708 255.301C56.4547 255.859 56.2948 256.108 56.1125 256.4C55.7339 256.996 55.3703 257.618 54.9911 258.244C54.5375 257.511 54.0817 256.811 53.6516 256.051C53.5557 255.883 53.5484 255.516 53.5005 255.24C53.4031 254.672 53.1219 254.379 52.8459 254.557C52.5687 254.736 52.4197 255.304 52.502 255.876C52.574 256.364 52.8036 256.72 53.074 256.572C53.3407 256.424 53.4968 256.656 53.6677 256.929C54.1088 257.628 54.5407 258.342 54.988 259.068C55.3735 258.432 55.7541 257.807 56.1344 257.184C56.3776 256.791 56.6 256.4 56.9729 256.579C57.2359 256.704 57.4708 256.192 57.4984 255.644C57.5203 255.123 57.3219 254.611 57.0577 254.52C56.7885 254.427 56.4891 254.756 56.4708 255.301Z"
    fill="currentColor" />
  <path
    d="M50.5266 227.208C50.2984 227.334 50.1401 227.683 50.1183 228.137C50.0968 228.551 50.2088 228.965 50.3964 229.165C50.6 229.385 50.8573 229.352 50.9968 228.985C51.0891 228.749 51.1776 228.356 51.1422 228.104C51.0724 227.585 51.1807 227.256 51.3187 226.909C51.6719 226.032 52.0244 225.156 52.3974 224.235C52.2402 223.864 52.074 223.497 51.9219 223.118C51.7307 222.651 51.5432 222.172 51.3536 221.699C51.2047 221.307 51.0797 220.944 51.1479 220.363C51.2177 219.797 51.0041 219.329 50.7323 219.241C50.4511 219.154 50.2047 219.473 50.1334 220.012C50.0656 220.547 50.2011 221.184 50.473 221.237C50.8298 221.315 50.9771 221.799 51.1626 222.26C51.4287 222.923 51.7047 223.572 51.9801 224.237C51.6131 225.156 51.2635 226.069 50.8886 226.939C50.8146 227.112 50.6495 227.139 50.5266 227.208Z"
    fill="currentColor" />
  <path
    d="M41.3797 181.593C42.2088 180.731 43.1025 180.032 44.1166 179.491C43.5817 180.571 42.889 181.52 42.0744 182.364C42.4588 182.836 42.8416 183.272 43.1833 183.74C43.527 184.215 43.8286 184.725 44.152 185.217L44.0656 185.297C43.0724 184.732 42.1906 184.009 41.3614 183.185C40.5306 184.037 39.652 184.745 38.6358 185.265C39.1672 184.193 39.8577 183.255 40.6853 182.385C39.8634 181.523 39.1686 180.599 38.6577 179.529C39.6869 180.045 40.5562 180.78 41.3797 181.593ZM38.0552 179.184C38.6672 180.34 39.3968 181.404 40.3104 182.364L40.1186 182.616C39.3234 183.483 38.665 184.456 38.1077 185.5C38.0358 185.643 37.9734 185.761 37.7901 185.815C37.4484 185.912 37.3817 186.076 37.439 186.487C37.788 186.607 37.9937 186.527 38.1046 186.192C38.1541 186.044 38.2052 185.932 38.3453 185.856C39.4057 185.263 40.3781 184.54 41.2478 183.675L41.3838 183.583L41.6186 183.792C42.4276 184.592 43.3353 185.252 44.3041 185.807C44.4697 185.901 44.5896 185.996 44.639 186.209C44.6942 186.453 44.9385 186.603 45.1369 186.555L45.3317 186.355C45.389 186.149 45.238 185.897 45.0104 185.832C44.8338 185.779 44.727 185.696 44.6369 185.527C44.0765 184.449 43.4 183.457 42.5801 182.575L42.4276 182.385L42.641 182.137C43.4166 181.289 44.0614 180.336 44.6057 179.313C44.6994 179.135 44.7994 178.999 45.014 178.936C45.3082 178.852 45.3797 178.615 45.277 178.265C44.8849 178.196 44.727 178.269 44.624 178.619C44.5786 178.761 44.5213 178.849 44.3978 178.915C43.3286 179.519 42.3448 180.245 41.4666 181.125L41.3598 181.195L41.1573 181.02C40.3322 180.196 39.4057 179.527 38.4093 178.955C38.2718 178.877 38.165 178.796 38.1114 178.615C38.0036 178.259 37.8505 178.192 37.4645 178.269C37.3656 178.66 37.439 178.82 37.7609 178.964L38.0552 179.184Z"
    fill="currentColor" />
  <path
    d="M33.3213 175.773C33.062 175.864 32.9025 175.741 32.7333 175.599C32.312 175.247 31.8968 174.893 31.4703 174.533C31.0812 174.865 30.6948 175.2 30.3052 175.525C30.0995 175.696 29.912 175.871 29.5864 175.773C29.3385 175.7 29.0921 175.98 29.0812 176.252C29.0661 176.496 29.2464 176.729 29.4781 176.771C29.7505 176.824 30.0255 176.667 30.0479 176.377C30.0631 176.136 30.1817 176.028 30.3344 175.899C30.7172 175.584 31.0885 175.26 31.4703 174.935C31.9047 175.299 32.3385 175.651 32.7557 176.025L32.8787 176.335C32.9281 176.548 33.0328 176.709 33.2385 176.761C33.4411 176.817 33.6229 176.768 33.7557 176.589C33.8787 176.433 33.9005 176.199 33.8031 176.025C33.6948 175.832 33.5177 175.707 33.3213 175.773Z"
    fill="currentColor" />
  <path
    d="M37.7297 183.548C37.5984 183.723 37.4849 183.859 37.2427 183.876C36.9667 183.893 36.8172 184.193 36.8729 184.477C36.9208 184.719 37.1489 184.896 37.3817 184.879C37.6489 184.86 37.9057 184.601 37.8344 184.34C37.7459 184.023 37.8968 183.835 38.0531 183.628C38.2115 183.416 38.3708 183.207 38.5344 183C38.6964 182.797 38.8677 182.599 39.0307 182.4C38.6812 181.949 38.3484 181.531 38.0197 181.101C37.8765 180.916 37.7536 180.741 37.8344 180.459C37.902 180.2 37.6891 179.956 37.4353 179.913C37.176 179.868 36.9353 180.028 36.8765 180.284C36.8104 180.564 36.95 180.86 37.2276 180.895C37.4937 180.933 37.6244 181.087 37.7677 181.279C38.0443 181.649 38.3375 182.001 38.6468 182.385L38.4407 182.655C38.2016 182.952 37.9573 183.244 37.7297 183.548Z"
    fill="currentColor" />
  <path
    d="M44.9131 180.493C44.9625 180.72 44.8964 180.877 44.7677 181.039C44.5011 181.38 44.2328 181.723 43.9645 182.064L43.7052 182.381C43.9625 182.704 44.2088 183.011 44.4516 183.317C44.5692 183.464 44.6724 183.615 44.7844 183.761C44.9031 183.911 44.9516 184.057 44.9167 184.271C44.8505 184.672 45.1792 184.965 45.5249 184.853C45.7468 184.784 45.8911 184.575 45.8797 184.34C45.8708 184.103 45.7177 183.88 45.4828 183.873C45.2459 183.869 45.1479 183.723 45.0249 183.567C44.7219 183.171 44.4093 182.78 44.1005 182.393C44.4588 181.929 44.7995 181.475 45.1609 181.043L45.5068 180.912C45.7801 180.825 45.9292 180.567 45.8667 180.293C45.8005 180.017 45.5432 179.853 45.2713 179.917C45.0249 179.973 44.8536 180.204 44.9131 180.493Z"
    fill="currentColor" />
  <path
    d="M39.6063 178.66C39.8011 178.605 39.9292 178.668 40.064 178.78C40.4959 179.139 40.9281 179.495 41.3729 179.868C41.8156 179.495 42.2349 179.141 42.6541 178.789C42.8011 178.671 42.9364 178.608 43.1448 178.664C43.4333 178.737 43.6907 178.515 43.7235 178.221C43.7511 177.961 43.5692 177.711 43.3224 177.665C43.0323 177.616 42.7844 177.788 42.7511 178.112C42.7349 178.297 42.65 178.395 42.5229 178.496C42.1411 178.815 41.764 179.139 41.3729 179.471C40.9484 179.111 40.5109 178.761 40.0938 178.388C40.014 178.315 40.0177 178.144 39.9807 178.021C39.8927 177.745 39.6359 177.599 39.3687 177.68C39.1135 177.749 38.9645 178.04 39.0401 178.315C39.1063 178.567 39.3396 178.733 39.6063 178.66Z"
    fill="currentColor" />
  <path
    d="M35.0511 170.211C35.1339 170.477 35.0177 170.644 34.8807 170.825C34.5568 171.241 34.2333 171.656 33.8916 172.093L34.0973 172.363C34.3301 172.661 34.5735 172.963 34.8083 173.263C34.9744 173.479 35.1375 173.679 35.0479 174.011C34.9812 174.265 35.2145 174.499 35.4724 174.531C35.7167 174.559 35.9411 174.408 36.0036 174.171C36.0735 173.905 35.952 173.584 35.7036 173.564C35.3396 173.535 35.2115 173.269 35.0292 173.04C34.7828 172.736 34.538 172.425 34.2755 172.096C34.6229 171.647 34.952 171.213 35.2921 170.797L35.5916 170.665C35.8052 170.627 35.9484 170.508 36 170.295C36.0568 170.085 36.0057 169.897 35.8364 169.757C35.676 169.621 35.4724 169.604 35.2959 169.712C35.1063 169.82 34.9833 170.009 35.0511 170.211Z"
    fill="currentColor" />
  <path
    d="M43.1853 186.115C42.9182 186.177 42.7458 186.069 42.5634 185.915C42.176 185.588 41.7858 185.256 41.3708 184.905C40.9484 185.263 40.5401 185.604 40.1317 185.947C39.9702 186.079 39.8156 186.181 39.5713 186.119C39.2901 186.044 39.062 186.257 39.0249 186.54C38.9958 186.812 39.1541 187.052 39.4057 187.109C39.6686 187.169 39.9516 187.012 39.9806 186.717C40.0052 186.449 40.1609 186.331 40.3301 186.187C40.6724 185.904 41.0031 185.612 41.3729 185.293L41.7125 185.595C41.9683 185.815 42.2254 186.044 42.4901 186.251C42.6426 186.369 42.7385 186.484 42.7568 186.697C42.7844 186.995 43.0494 187.165 43.3172 187.112C43.5656 187.064 43.751 186.816 43.7234 186.561C43.6942 186.279 43.4625 186.051 43.1853 186.115Z"
    fill="currentColor" />
  <path
    d="M27.2979 170.644C27.5568 170.659 27.6749 170.816 27.8088 170.993C28.0885 171.36 28.3787 171.716 28.6708 172.087C28.3312 172.529 28.0005 172.973 27.6453 173.395C27.5683 173.487 27.3973 173.497 27.2687 173.543C27.0036 173.637 26.8677 173.908 26.9511 174.181C27.0333 174.451 27.3 174.6 27.5661 174.516C27.7943 174.447 27.9599 174.22 27.8896 173.955C27.8197 173.7 27.9317 173.543 28.0568 173.377C28.3828 172.948 28.7172 172.527 29.0552 172.089C28.7593 171.713 28.4651 171.343 28.1771 170.973C27.9927 170.735 27.8088 170.519 27.8937 170.155C27.952 169.897 27.7151 169.667 27.4577 169.643C27.2131 169.619 26.9744 169.813 26.9287 170.075C26.8896 170.337 27.0407 170.627 27.2979 170.644Z"
    fill="currentColor" />
  <path
    d="M22.6828 183.116C21.8459 183.995 20.9416 184.7 19.9197 185.245C20.4359 184.184 21.1235 183.259 21.9031 182.424C21.5172 181.947 21.1453 181.501 20.7964 181.039C20.4525 180.581 20.1453 180.101 19.9235 179.561C20.9599 180.109 21.8609 180.836 22.6948 181.695C23.5203 180.821 24.4339 180.109 25.4672 179.551C24.9511 180.604 24.2744 181.541 23.4749 182.379C23.8443 182.843 24.2172 183.283 24.5667 183.751C24.9068 184.205 25.226 184.68 25.4359 185.228C24.3995 184.689 23.5151 183.957 22.6828 183.116Z"
    fill="currentColor" />
  <path
    d="M24.5093 186.087C24.2833 186.153 24.1416 186.067 23.9853 185.94C23.7667 185.759 23.5407 185.58 23.324 185.391C23.1125 185.217 22.9135 185.028 22.7011 184.836C22.2468 185.22 21.8297 185.572 21.4083 185.925C21.2484 186.059 21.1 186.159 20.852 186.087C20.5907 186.007 20.3427 186.233 20.2984 186.512C20.2615 186.767 20.4359 187.028 20.6787 187.081C20.9661 187.144 21.2339 186.977 21.2672 186.663C21.2875 186.463 21.3719 186.355 21.5115 186.243C21.9031 185.923 22.2875 185.588 22.6839 185.245C23.1235 185.615 23.5667 185.971 23.9911 186.352L24.1125 186.711C24.1948 186.997 24.4416 187.148 24.7099 187.077C24.9692 187.015 25.1292 186.739 25.0609 186.46C25.0041 186.205 24.7687 186.013 24.5093 186.087Z"
    fill="currentColor" />
  <path
    d="M20.8754 178.713C21.1 178.664 21.2432 178.744 21.3994 178.873C21.7281 179.153 22.0557 179.432 22.3844 179.711L22.6948 179.973C22.9046 179.789 23.0942 179.613 23.2885 179.441C23.5202 179.247 23.7562 179.063 23.9853 178.871C24.1401 178.74 24.2906 178.664 24.5093 178.716C24.7724 178.78 24.9838 178.623 25.0557 178.384C25.1385 178.112 25.002 177.829 24.7432 177.739C24.4853 177.648 24.1656 177.78 24.1364 178.064C24.0994 178.395 23.8953 178.535 23.6858 178.709C23.3573 178.988 23.0333 179.272 22.6989 179.565C22.2453 179.184 21.8197 178.839 21.4104 178.476L21.2797 178.168C21.2098 177.847 20.9822 177.665 20.6989 177.717C20.4489 177.769 20.2692 178.019 20.2964 178.272C20.3317 178.571 20.5718 178.783 20.8754 178.713Z"
    fill="currentColor" />
  <path
    d="M26.8896 183.863C26.5697 183.841 26.4541 183.625 26.2948 183.419C26.0297 183.08 25.7557 182.741 25.4911 182.404C25.8312 181.973 26.1328 181.593 26.4271 181.203C26.5276 181.073 26.6161 180.968 26.8 180.968C27.0167 180.968 27.1599 180.825 27.2151 180.612C27.2687 180.403 27.2244 180.215 27.0552 180.071C26.8953 179.935 26.6911 179.913 26.5145 180.017C26.326 180.127 26.2011 180.312 26.2635 180.515C26.3552 180.804 26.2172 180.975 26.0792 181.16C25.7635 181.568 25.4448 181.973 25.1104 182.4L25.2817 182.64C25.5369 182.961 25.7948 183.276 26.0427 183.6C26.2011 183.807 26.3604 183.995 26.2635 184.316C26.1911 184.568 26.4271 184.808 26.6817 184.844C26.9432 184.875 27.1787 184.708 27.226 184.445C27.2797 184.177 27.1453 183.883 26.8896 183.863Z"
    fill="currentColor" />
  <path
    d="M19.1052 184.273C19.0396 184.019 19.1385 183.859 19.2672 183.695C19.5958 183.265 19.9286 182.843 20.2702 182.404C19.9708 182.019 19.6677 181.639 19.3718 181.255C19.1973 181.032 19.0244 180.821 19.1073 180.472C19.1697 180.211 18.9344 179.984 18.6786 179.956C18.4364 179.928 18.1937 180.12 18.1473 180.377C18.102 180.639 18.2541 180.933 18.5062 180.955C18.7634 180.975 18.8864 181.119 19.0244 181.303C19.2984 181.673 19.5906 182.025 19.8885 182.4C19.5426 182.843 19.2098 183.252 18.903 183.681C18.7833 183.841 18.6276 183.799 18.488 183.848C18.2208 183.945 18.0838 184.215 18.1625 184.488C18.2432 184.76 18.5062 184.905 18.7724 184.825C19.0041 184.76 19.177 184.536 19.1052 184.273Z"
    fill="currentColor" />
</svg>