<svg viewBox="0 0 164 93" fill="none" xmlns="http://www.w3.org/2000/svg">
    <path
        d="M59.345 39.192C60.7103 39.192 61.6063 40.1733 62.033 42.136C62.545 44.0987 62.801 47.0853 62.801 51.096C62.801 55.192 62.545 58.2213 62.033 60.184C61.521 62.0613 60.625 63 59.345 63C56.017 63 52.6037 62.1893 49.105 60.568C45.6917 58.8613 42.4917 56.344 39.505 53.016C38.481 54.6373 36.9023 56.984 34.769 60.056C32.5503 61.08 29.6063 61.9333 25.937 62.616C22.353 63.2987 18.4703 63.64 14.289 63.64C9.08367 63.64 4.47567 63.0853 0.465 61.976C0.806334 54.1253 2.21433 46.5307 4.689 39.192C9.12633 39.6187 12.9237 39.832 16.081 39.832C21.1157 39.832 25.809 39.3627 30.161 38.424C25.553 30.232 20.433 22.5093 14.801 15.256L32.465 0.279999C35.537 4.632 38.0117 8.77067 39.889 12.696C41.8517 16.6213 44.113 21.656 46.673 27.8C48.0383 30.9573 49.233 33.304 50.257 34.84C51.281 36.376 52.4757 37.4853 53.841 38.168C55.2063 38.8507 57.041 39.192 59.345 39.192ZM109.423 39.192C110.788 39.192 111.684 40.1733 112.111 42.136C112.623 44.0987 112.879 47.0853 112.879 51.096C112.879 55.192 112.623 58.2213 112.111 60.184C111.599 62.0613 110.703 63 109.423 63C100.719 63 94.1057 60.0133 89.583 54.04H88.431C86.639 56.6 84.1217 58.52 80.879 59.8C77.7217 61.08 74.607 61.9333 71.535 62.36C68.463 62.7867 64.4097 63 59.375 63C58.095 63 57.199 62.0613 56.687 60.184C56.175 58.2213 55.919 55.192 55.919 51.096C55.919 47.0853 56.175 44.0987 56.687 42.136C57.1137 40.1733 58.0097 39.192 59.375 39.192C64.0683 39.192 67.9937 38.8933 71.151 38.296C74.3083 37.6987 77.167 36.4187 79.727 34.456C82.287 32.4933 84.3777 29.5493 85.999 25.624L96.751 27.288C96.6657 27.9707 96.623 28.9093 96.623 30.104C96.623 33.688 97.5617 36.12 99.439 37.4C101.316 38.5947 104.644 39.192 109.423 39.192ZM97.903 80.024C98.0737 81.304 97.135 83.3947 95.087 86.296C93.039 89.1973 91.2897 91.16 89.839 92.184C88.2177 91.5013 86.1697 90.3067 83.695 88.6C81.2203 86.9787 79.3857 85.4853 78.191 84.12C77.3377 85.656 76.2283 87.2347 74.863 88.856C73.4977 90.4773 72.3883 91.5867 71.535 92.184C69.8283 91.416 67.6523 90.0933 65.007 88.216C62.3617 86.424 60.4843 84.888 59.375 83.608C59.887 81.816 61.167 79.4267 63.215 76.44C65.263 73.4533 66.9697 71.96 68.335 71.96C69.7003 71.96 71.7483 72.8987 74.479 74.776C77.2097 76.7387 78.8737 78.36 79.471 79.64C80.6657 77.5067 81.903 75.672 83.183 74.136C84.463 72.6853 85.615 71.96 86.639 71.96C88.0043 71.96 90.1377 72.984 93.039 75.032C96.0257 77.1653 97.647 78.8293 97.903 80.024ZM163.007 35.736C163.178 38.6373 163.007 42.2213 162.495 46.488C161.983 50.7547 161.3 54.2533 160.447 56.984C158.143 57.4107 155.455 57.624 152.383 57.624C146.58 57.624 142.015 57.0267 138.687 55.832C132.97 58.3067 127.85 60.1413 123.327 61.336C118.89 62.4453 114.239 63 109.375 63C108.095 63 107.199 62.0613 106.687 60.184C106.175 58.2213 105.919 55.192 105.919 51.096C105.919 47.0853 106.175 44.0987 106.687 42.136C107.114 40.1733 108.01 39.192 109.375 39.192C111.338 39.192 114.623 39.0213 119.231 38.68C118.463 36.632 117.951 34.584 117.695 32.536C117.524 30.8293 117.439 29.5493 117.439 28.696C117.439 21.9547 119.914 16.1093 124.863 11.16C129.812 6.21066 136.554 3.13866 145.087 1.944C146.623 1.688 148.244 1.56 149.951 1.56C152.596 1.56 155.199 1.90133 157.759 2.584C158.186 5.31466 158.399 9.15466 158.399 14.104C158.399 17.0907 158.271 19.4373 158.015 21.144C150.932 21.2293 145.386 21.6987 141.375 22.552C137.364 23.4053 135.018 24.8987 134.335 27.032C133.994 28.2267 134.335 29.6773 135.359 31.384C136.468 33.0053 138.09 34.6693 140.223 36.376C149.61 35.5227 156.906 35.096 162.111 35.096L163.007 35.736Z"
        fill="currentColor" />
</svg>