<svg viewBox="0 0 248 110" fill="none" xmlns="http://www.w3.org/2000/svg">
    <path
        d="M81.498 22.728L63.834 28.232C71.4287 39.496 75.226 50.3333 75.226 60.744C75.226 65.096 74.5007 69.448 73.05 73.8C69.2953 74.9093 64.3887 75.848 58.33 76.616C52.2713 77.384 45.658 77.768 38.49 77.768C25.7753 77.768 12.9753 76.4453 0.0900002 73.8C1.02867 65.7787 2.778 58.0133 5.338 50.504C20.2713 52.7227 33.9673 53.832 46.426 53.832C50.01 53.832 53.3807 53.704 56.538 53.448C51.3327 46.1093 45.402 40.3493 38.746 36.168V15.56L79.578 0.327995L81.498 1.60799V22.728ZM91.193 109.768C88.2063 108.659 84.7077 106.739 80.697 104.008C76.601 101.363 73.657 98.9307 71.865 96.712C75.961 90.6533 79.9717 83.4427 83.897 75.08C87.993 66.5467 91.3637 57.928 94.009 49.224L111.929 55.24C110.478 63.688 107.833 72.9467 103.993 83.016C101.604 89.2453 99.129 94.792 96.569 99.656C94.0943 104.605 92.3023 107.976 91.193 109.768ZM146.357 53.192C147.722 53.192 148.618 54.1733 149.045 56.136C149.557 58.0987 149.813 61.0853 149.813 65.096C149.813 69.192 149.557 72.2213 149.045 74.184C148.533 76.0613 147.637 77 146.357 77C141.664 77 137.098 76.7013 132.661 76.104C128.309 75.5067 124.64 74.568 121.653 73.288C120.885 70.216 120.245 56.3493 119.733 31.688L118.965 5.70399L139.573 4.55199C140.341 17.2667 140.725 28.9573 140.725 39.624C140.725 42.8667 140.64 47.2187 140.469 52.68C142.602 53.0213 144.565 53.192 146.357 53.192ZM186.823 53.192C188.188 53.192 189.084 54.1733 189.511 56.136C190.023 58.0987 190.279 61.0853 190.279 65.096C190.279 69.192 190.023 72.2213 189.511 74.184C188.999 76.0613 188.103 77 186.823 77C183.41 77 179.996 76.2747 176.583 74.824C173.255 73.3733 170.652 71.112 168.775 68.04H167.751C165.874 71.368 163.186 73.7147 159.687 75.08C156.188 76.36 151.751 77 146.375 77C145.095 77 144.199 76.0613 143.687 74.184C143.175 72.2213 142.919 69.192 142.919 65.096C142.919 61.0853 143.175 58.0987 143.687 56.136C144.114 54.1733 145.01 53.192 146.375 53.192C151.58 53.192 155.719 52.296 158.791 50.504C161.948 48.712 164.082 45.0853 165.191 39.624L176.071 41.288C175.986 41.9707 175.943 42.952 175.943 44.232C175.943 47.816 176.711 50.2053 178.247 51.4C179.868 52.5947 182.727 53.192 186.823 53.192ZM165.191 107.592C163.399 106.909 161.052 105.544 158.151 103.496C155.25 101.533 153.244 99.8267 152.135 98.376C152.391 97.2667 153.031 95.7307 154.055 93.768C155.164 91.8907 156.402 90.1413 157.767 88.52C159.132 86.984 160.327 86.1307 161.351 85.96C162.29 85.7893 163.698 86.216 165.575 87.24C167.538 88.264 169.33 89.5013 170.951 90.952C172.658 92.488 173.596 93.6827 173.767 94.536C174.108 95.816 173.127 98.0347 170.823 101.192C168.604 104.435 166.727 106.568 165.191 107.592ZM228.091 28.616C231.846 28.616 235.174 29.7253 238.075 31.944C240.976 34.0773 243.195 37.1067 244.731 41.032C246.352 44.872 247.163 49.2667 247.163 54.216C247.163 60.9573 245.712 66.5893 242.811 71.112C239.91 75.5493 235.856 77.768 230.651 77.768C227.238 77.768 223.654 76.8293 219.899 74.952C216.23 73.0747 212.731 70.6 209.403 67.528C206.587 70.6 203.259 72.9467 199.419 74.568C195.664 76.1893 191.483 77 186.875 77C185.595 77 184.699 76.0613 184.187 74.184C183.675 72.2213 183.419 69.192 183.419 65.096C183.419 61.0853 183.675 58.0987 184.187 56.136C184.614 54.1733 185.51 53.192 186.875 53.192C190.715 53.192 194.043 52.5947 196.859 51.4C199.76 50.12 202.15 48.584 204.027 46.792C205.99 45 208.251 42.6107 210.811 39.624C213.883 35.9547 216.614 33.224 219.003 31.432C221.478 29.5547 224.507 28.616 228.091 28.616ZM229.627 55.752C231.163 55.752 232.614 55.624 233.979 55.368C235.344 55.0267 236.198 54.6427 236.539 54.216C236.454 53.0213 235.6 51.9973 233.979 51.144C232.443 50.2907 230.31 49.864 227.579 49.864C223.739 49.864 220.326 50.76 217.339 52.552C218.875 53.6613 220.752 54.472 222.971 54.984C225.19 55.496 227.408 55.752 229.627 55.752Z"
        fill="currentColor" />
</svg>