<svg viewBox="0 0 285 285" fill="none" xmlns="http://www.w3.org/2000/svg">
    <mask id="path-1-inside-1_17_429" fill="white">
        <path d="M176.415 133.113L185.565 117.264H167.264V127.83L176.415 133.113Z" />
        <path d="M167.264 117.264V98.9629L151.415 108.113L156.698 117.264H167.264Z" />
        <path d="M142.264 92.264L133.113 108.113L142.264 113.397L151.415 108.113L142.264 92.264Z" />
        <path d="M133.113 108.113L117.264 98.9627V117.264H127.83L133.113 108.113Z" />
        <path d="M117.264 117.264H98.9629L108.113 133.113L117.264 127.83V117.264Z" />
        <path d="M108.113 133.113L92.2642 142.264L108.113 151.415L113.397 142.264L108.113 133.113Z" />
        <path d="M117.264 156.698L108.113 151.415L98.9627 167.264H117.264V156.698Z" />
        <path d="M117.264 167.264V185.565L133.113 176.415L127.83 167.264H117.264Z" />
        <path d="M133.113 176.415L142.264 192.264L151.415 176.415L142.264 171.132L133.113 176.415Z" />
        <path d="M151.415 176.415L167.264 185.565V167.264H156.698L151.415 176.415Z" />
        <path d="M167.264 167.264H185.565L176.415 151.415L167.264 156.698V167.264Z" />
        <path d="M176.415 151.415L192.264 142.264L176.415 133.113L171.132 142.264L176.415 151.415Z" />
        <path d="M142.132 0L117.264 24.868V48.9627L142.264 92.264L167.264 48.9628V25.132L142.132 0Z" />
        <path
            d="M213.282 18.9937L179.311 28.096L167.264 48.9628V98.9629L210.565 73.963L222.481 53.3247L213.282 18.9937Z" />
        <path
            d="M265.534 71.2464L231.203 62.0475L210.565 73.963L185.565 117.264H235.565L256.432 105.217L265.534 71.2464Z" />
        <path
            d="M71.0177 19.1257L61.9154 53.096L73.9628 73.9628L117.264 98.9627L117.264 48.9627L105.349 28.3247L71.0177 19.1257Z" />
        <path d="M284.528 142.396L259.396 117.264H235.565L192.264 142.264L235.566 167.264H259.66L284.528 142.396Z" />
        <path
            d="M265.402 213.51L256.203 179.179L235.566 167.264H185.565L210.565 210.565L231.432 222.613L265.402 213.51Z" />
        <path
            d="M18.9938 71.2463L28.0961 105.217L48.9631 117.264H98.9629L73.9628 73.9628L53.3248 62.0474L18.9938 71.2463Z" />
        <path d="M0 142.396L24.868 167.264H48.9628L92.2642 142.264L48.9631 117.264H25.132L0 142.396Z" />
        <path
            d="M213.282 265.534L222.481 231.203L210.565 210.565L167.264 185.565V235.565L179.312 256.432L213.282 265.534Z" />
        <path d="M142.132 284.528L167.264 259.396V235.565L142.264 192.264L117.264 235.565V259.66L142.132 284.528Z" />
        <path
            d="M71.0176 265.402L105.349 256.203L117.264 235.565L117.264 185.565L73.9626 210.566L61.9153 231.432L71.0176 265.402Z" />
        <path
            d="M19.1257 213.511L53.096 222.613L73.9626 210.566L98.9627 167.264H48.9628L28.3247 179.18L19.1257 213.511Z" />
    </mask>
    <path
        d="M142.264 113.397L143.264 111.665L142.264 111.087L141.264 111.665L142.264 113.397ZM127.83 117.264V115.264H126.675L126.098 116.264L127.83 117.264ZM117.264 127.83L116.264 126.098L115.264 126.676V127.83H117.264ZM113.397 142.264L111.664 141.264L111.087 142.264L111.664 143.264L113.397 142.264ZM117.264 156.698H115.264V157.852L116.264 158.43L117.264 156.698ZM156.698 117.264L158.43 116.264L157.853 115.264H156.698V117.264ZM142.264 171.132L141.264 172.864L142.264 173.441L143.264 172.864L142.264 171.132ZM127.83 167.264L126.098 168.264L126.676 169.264H127.83V167.264ZM156.698 167.264V169.264H157.852L158.43 168.264L156.698 167.264ZM167.264 156.698L168.264 158.43L169.264 157.853V156.698H167.264ZM171.132 142.264L172.864 143.264L173.441 142.264L172.864 141.264L171.132 142.264ZM167.264 127.83H169.264V126.676L168.264 126.098L167.264 127.83ZM156.698 115.264H148.963V119.264H156.698V115.264ZM149.963 115.532L143.264 111.665L141.264 115.129L147.963 118.996L149.963 115.532ZM141.264 111.665L134.565 115.532L136.565 118.996L143.264 115.129L141.264 111.665ZM135.565 115.264H127.83V119.264H135.565V115.264ZM126.098 116.264L122.231 122.963L125.695 124.963L129.562 118.264L126.098 116.264ZM122.963 122.231L116.264 126.098L118.264 129.562L124.963 125.695L122.963 122.231ZM115.264 127.83V135.565H119.264V127.83H115.264ZM115.532 134.565L111.664 141.264L115.129 143.264L118.996 136.565L115.532 134.565ZM111.664 143.264L115.532 149.963L118.996 147.963L115.129 141.264L111.664 143.264ZM115.264 148.963V156.698H119.264V148.963H115.264ZM125.695 159.565L118.996 147.963L115.532 149.963L122.231 161.565L125.695 159.565ZM119.264 148.963L119.264 135.565L115.264 135.565L115.264 148.963L119.264 148.963ZM118.996 136.565L125.695 124.963L122.231 122.963L115.532 134.565L118.996 136.565ZM124.963 125.695L136.565 118.996L134.565 115.532L122.963 122.231L124.963 125.695ZM135.565 119.264L148.963 119.264L148.963 115.264L135.565 115.264L135.565 119.264ZM147.963 118.996L159.565 125.695L161.565 122.231L149.963 115.532L147.963 118.996ZM158.833 124.963L165.532 136.565L168.996 134.565L162.297 122.963L158.833 124.963ZM165.264 135.565L165.264 148.963L169.264 148.963L169.264 135.565L165.264 135.565ZM165.532 147.963L158.833 159.566L162.297 161.566L168.996 149.963L165.532 147.963ZM159.565 158.833L147.963 165.532L149.963 168.996L161.565 162.298L159.565 158.833ZM148.963 165.264L135.566 165.264L135.566 169.264L148.963 169.264L148.963 165.264ZM136.566 165.532L124.963 158.833L122.963 162.297L134.566 168.996L136.566 165.532ZM134.566 168.996L141.264 172.864L143.264 169.4L136.566 165.532L134.566 168.996ZM127.83 169.264H135.566V165.264H127.83V169.264ZM148.963 169.264H156.698V165.264H148.963V169.264ZM143.264 172.864L149.963 168.996L147.963 165.532L141.264 169.4L143.264 172.864ZM161.565 162.298L168.264 158.43L166.264 154.966L159.565 158.833L161.565 162.298ZM158.43 168.264L162.297 161.566L158.833 159.566L154.966 166.264L158.43 168.264ZM168.996 149.963L172.864 143.264L169.4 141.264L165.532 147.963L168.996 149.963ZM169.264 156.698V148.963H165.264V156.698H169.264ZM169.264 135.565V127.83H165.264V135.565H169.264ZM172.864 141.264L168.996 134.565L165.532 136.565L169.4 143.264L172.864 141.264ZM122.231 161.565L126.098 168.264L129.562 166.264L125.695 159.565L122.231 161.565ZM116.264 158.43L122.963 162.297L124.963 158.833L118.264 154.966L116.264 158.43ZM162.297 122.963L158.43 116.264L154.966 118.264L158.833 124.963L162.297 122.963ZM168.264 126.098L161.565 122.231L159.565 125.695L166.264 129.562L168.264 126.098ZM28.3247 179.18L26.3247 175.715L24.8898 176.544L24.461 178.144L28.3247 179.18ZM231.203 62.0475L232.239 58.1838L230.638 57.755L229.203 58.5834L231.203 62.0475ZM265.534 71.2464L269.398 72.2817L270.433 68.418L266.57 67.3827L265.534 71.2464ZM256.432 105.217L258.432 108.681L259.867 107.852L260.296 106.252L256.432 105.217ZM53.096 222.613L52.0608 226.477L53.6612 226.905L55.096 226.077L53.096 222.613ZM19.1257 213.511L15.262 212.475L14.2268 216.339L18.0905 217.374L19.1257 213.511ZM25.132 117.264V113.264H23.4752L22.3036 114.436L25.132 117.264ZM259.396 117.264L262.225 114.436L261.053 113.264H259.396V117.264ZM284.528 142.396L287.357 145.225L290.185 142.396L287.357 139.568L284.528 142.396ZM259.66 167.264V171.264H261.317L262.489 170.093L259.66 167.264ZM24.868 167.264L22.0396 170.093L23.2111 171.264H24.868V167.264ZM0 142.396L-2.82843 139.568L-5.65685 142.396L-2.82843 145.225L0 142.396ZM53.3248 62.0474L55.3248 58.5833L53.8899 57.7548L52.2895 58.1837L53.3248 62.0474ZM256.203 179.179L260.067 178.144L259.638 176.544L258.203 175.715L256.203 179.179ZM265.402 213.51L266.438 217.374L270.301 216.339L269.266 212.475L265.402 213.51ZM231.432 222.613L229.432 226.077L230.867 226.905L232.467 226.476L231.432 222.613ZM28.0961 105.217L24.2324 106.252L24.6612 107.852L26.0961 108.681L28.0961 105.217ZM18.9938 71.2463L17.9585 67.3826L14.0948 68.4179L15.1301 72.2816L18.9938 71.2463ZM105.349 28.3247L108.813 26.3247L107.984 24.8898L106.384 24.461L105.349 28.3247ZM222.481 231.203L226.344 232.239L226.773 230.638L225.945 229.203L222.481 231.203ZM213.282 265.534L212.247 269.398L216.11 270.433L217.146 266.57L213.282 265.534ZM179.312 256.432L175.847 258.432L176.676 259.867L178.276 260.296L179.312 256.432ZM61.9154 53.096L58.0517 52.0607L57.6229 53.6611L58.4513 55.096L61.9154 53.096ZM71.0177 19.1257L72.053 15.262L68.1893 14.2268L67.154 18.0905L71.0177 19.1257ZM167.264 25.132H171.264V23.4752L170.092 22.3036L167.264 25.132ZM167.264 259.396L170.092 262.225L171.264 261.053V259.396H167.264ZM142.132 284.528L139.304 287.357L142.132 290.185L144.96 287.357L142.132 284.528ZM117.264 259.66H113.264V261.317L114.436 262.489L117.264 259.66ZM117.264 24.868L114.436 22.0396L113.264 23.2111V24.868H117.264ZM142.132 0L144.96 -2.82843L142.132 -5.65685L139.304 -2.82843L142.132 0ZM222.481 53.3247L225.945 55.3247L226.773 53.8898L226.344 52.2894L222.481 53.3247ZM105.349 256.203L106.384 260.067L107.984 259.638L108.813 258.203L105.349 256.203ZM71.0176 265.402L67.1539 266.438L68.1892 270.301L72.0529 269.266L71.0176 265.402ZM61.9153 231.432L58.4512 229.432L57.6228 230.867L58.0516 232.467L61.9153 231.432ZM179.311 28.096L178.276 24.2323L176.676 24.6612L175.847 26.096L179.311 28.096ZM213.282 18.9937L217.145 17.9585L216.11 14.0948L212.246 15.13L213.282 18.9937ZM142.264 113.397L140.264 116.861L142.264 118.015L144.264 116.861L142.264 113.397ZM127.83 117.264V121.264H130.14L131.294 119.264L127.83 117.264ZM117.264 127.83L119.264 131.295L121.264 130.14V127.83H117.264ZM113.397 142.264L116.861 144.264L118.015 142.264L116.861 140.264L113.397 142.264ZM117.264 156.698H121.264V154.388L119.264 153.234L117.264 156.698ZM156.698 117.264L153.234 119.264L154.389 121.264H156.698V117.264ZM142.264 171.132L144.264 167.668L142.264 166.513L140.264 167.668L142.264 171.132ZM127.83 167.264L131.295 165.264L130.14 163.264H127.83V167.264ZM156.698 167.264V163.264H154.388L153.234 165.264L156.698 167.264ZM167.264 156.698L165.264 153.234L163.264 154.389V156.698H167.264ZM171.132 142.264L167.667 140.264L166.513 142.264L167.667 144.264L171.132 142.264ZM167.264 127.83H163.264V130.14L165.264 131.294L167.264 127.83ZM230.168 65.9112L264.499 75.1101L266.57 67.3827L232.239 58.1838L230.168 65.9112ZM261.671 70.2112L252.568 104.181L260.296 106.252L269.398 72.2817L261.671 70.2112ZM54.1313 218.749L20.161 209.647L18.0905 217.374L52.0608 226.477L54.1313 218.749ZM22.9894 214.546L32.1884 180.215L24.461 178.144L15.262 212.475L22.9894 214.546ZM256.568 120.093L281.7 145.225L287.357 139.568L262.225 114.436L256.568 120.093ZM281.7 139.568L256.832 164.436L262.489 170.093L287.357 145.225L281.7 139.568ZM27.6964 164.436L2.82843 139.568L-2.82843 145.225L22.0396 170.093L27.6964 164.436ZM2.82843 145.225L27.9604 120.093L22.3036 114.436L-2.82843 139.568L2.82843 145.225ZM252.34 180.215L261.539 214.546L269.266 212.475L260.067 178.144L252.34 180.215ZM264.367 209.647L230.397 218.749L232.467 226.476L266.438 217.374L264.367 209.647ZM31.9598 104.181L22.8575 70.2111L15.1301 72.2816L24.2324 106.252L31.9598 104.181ZM20.0291 75.11L54.36 65.9111L52.2895 58.1837L17.9585 67.3826L20.0291 75.11ZM218.617 230.168L209.418 264.499L217.146 266.57L226.344 232.239L218.617 230.168ZM214.317 261.671L180.347 252.568L178.276 260.296L212.247 269.398L214.317 261.671ZM65.7791 54.1313L74.8814 20.161L67.154 18.0905L58.0517 52.0607L65.7791 54.1313ZM69.9824 22.9894L104.313 32.1884L106.384 24.461L72.053 15.262L69.9824 22.9894ZM164.436 256.568L139.304 281.7L144.96 287.357L170.092 262.225L164.436 256.568ZM144.96 281.7L120.092 256.832L114.436 262.489L139.304 287.357L144.96 281.7ZM120.092 27.6964L144.96 2.82843L139.304 -2.82843L114.436 22.0396L120.092 27.6964ZM139.304 2.82843L164.436 27.9604L170.092 22.3036L144.96 -2.82843L139.304 2.82843ZM104.313 252.34L69.9823 261.539L72.0529 269.266L106.384 260.067L104.313 252.34ZM74.8813 264.367L65.779 230.397L58.0516 232.467L67.1539 266.438L74.8813 264.367ZM180.347 31.9597L214.317 22.8574L212.246 15.13L178.276 24.2323L180.347 31.9597ZM209.418 20.029L218.617 54.36L226.344 52.2894L217.145 17.9585L209.418 20.029ZM46.9628 163.8L26.3247 175.715L30.3247 182.644L50.9628 170.728L46.9628 163.8ZM55.096 226.077L75.9626 214.03L71.9626 207.101L51.096 219.149L55.096 226.077ZM70.4985 208.566L58.4512 229.432L65.3794 233.432L77.4267 212.566L70.4985 208.566ZM108.813 258.203L120.728 237.565L113.8 233.565L101.884 254.203L108.813 258.203ZM113.264 235.565V259.66H121.264V235.565H113.264ZM171.264 259.396V235.565H163.264V259.396H171.264ZM163.8 237.565L175.847 258.432L182.776 254.432L170.728 233.565L163.8 237.565ZM225.945 229.203L214.029 208.565L207.101 212.565L219.017 233.203L225.945 229.203ZM208.565 214.029L229.432 226.077L233.432 219.149L212.565 207.101L208.565 214.029ZM258.203 175.715L237.566 163.8L233.566 170.728L254.203 182.644L258.203 175.715ZM235.566 171.264H259.66V163.264H235.566V171.264ZM259.396 113.264H235.565V121.264H259.396V113.264ZM237.565 120.728L258.432 108.681L254.432 101.753L233.565 113.8L237.565 120.728ZM229.203 58.5834L208.565 70.4989L212.565 77.4271L233.203 65.5116L229.203 58.5834ZM214.029 75.963L225.945 55.3247L219.017 51.3247L207.101 71.963L214.029 75.963ZM175.847 26.096L163.8 46.9628L170.728 50.9628L182.776 30.096L175.847 26.096ZM171.264 48.9628V25.132H163.264V48.9628H171.264ZM113.264 24.868V48.9627H121.264V24.868H113.264ZM113.8 50.9627L138.8 94.264L145.728 90.264L120.728 46.9627L113.8 50.9627ZM138.8 90.264L129.649 106.113L136.578 110.113L145.728 94.264L138.8 90.264ZM135.113 104.649L119.264 95.4986L115.264 102.427L131.113 111.577L135.113 104.649ZM113.264 98.9627V117.264H121.264V98.9627H113.264ZM117.264 113.264H98.9629V121.264H117.264V113.264ZM102.427 115.264L77.4269 71.9628L70.4987 75.9628L95.4988 119.264L102.427 115.264ZM75.9628 70.4987L55.3248 58.5833L51.3248 65.5115L71.9628 77.4269L75.9628 70.4987ZM26.0961 108.681L46.9631 120.728L50.9631 113.8L30.0961 101.753L26.0961 108.681ZM48.9631 113.264H25.132V121.264H48.9631V113.264ZM24.868 171.264H48.9628V163.264H24.868V171.264ZM94.2642 138.8L50.9631 113.8L46.9631 120.728L90.2642 145.728L94.2642 138.8ZM48.9631 121.264H98.9629V113.264H48.9631V121.264ZM95.4988 119.264L104.649 135.113L111.578 131.113L102.427 115.264L95.4988 119.264ZM106.113 129.649L90.2642 138.8L94.2642 145.728L110.113 136.578L106.113 129.649ZM110.113 147.951L94.2642 138.8L90.2642 145.728L106.113 154.879L110.113 147.951ZM90.2642 138.8L46.9628 163.8L50.9628 170.728L94.2642 145.728L90.2642 138.8ZM48.9628 171.264H98.9627V163.264H48.9628V171.264ZM95.4986 165.264L70.4985 208.566L77.4267 212.566L102.427 169.264L95.4986 165.264ZM75.9626 214.03L119.264 189.03L115.264 182.101L71.9626 207.101L75.9626 214.03ZM113.264 185.565L113.264 235.565L121.264 235.565L121.264 185.565L113.264 185.565ZM120.728 237.565L145.728 194.264L138.8 190.264L113.8 233.565L120.728 237.565ZM138.8 194.264L163.8 237.565L170.728 233.565L145.728 190.264L138.8 194.264ZM171.264 235.565V185.565H163.264V235.565H171.264ZM165.264 189.029L208.565 214.029L212.565 207.101L169.264 182.101L165.264 189.029ZM214.029 208.565L189.03 165.264L182.101 169.264L207.101 212.565L214.029 208.565ZM185.565 171.264H235.566V163.264H185.565V171.264ZM237.566 163.8L194.264 138.8L190.264 145.728L233.566 170.728L237.566 163.8ZM194.264 145.728L237.565 120.728L233.565 113.8L190.264 138.8L194.264 145.728ZM235.565 113.264H185.565V121.264H235.565V113.264ZM189.029 119.264L214.029 75.963L207.101 71.963L182.101 115.264L189.029 119.264ZM208.565 70.4989L165.264 95.4988L169.264 102.427L212.565 77.4271L208.565 70.4989ZM171.264 98.9629V48.9628H163.264V98.9629H171.264ZM163.8 46.9628L138.8 90.264L145.728 94.264L170.728 50.9628L163.8 46.9628ZM138.8 94.264L147.951 110.113L154.879 106.113L145.728 90.264L138.8 94.264ZM149.415 104.649L140.264 109.932L144.264 116.861L153.415 111.578L149.415 104.649ZM144.264 109.932L135.113 104.649L131.113 111.577L140.264 116.861L144.264 109.932ZM129.649 106.113L124.366 115.264L131.294 119.264L136.578 110.113L129.649 106.113ZM127.83 113.264H117.264V121.264H127.83V113.264ZM113.264 117.264V127.83H121.264V117.264H113.264ZM115.264 124.366L106.113 129.649L110.113 136.578L119.264 131.295L115.264 124.366ZM104.649 135.113L109.932 144.264L116.861 140.264L111.578 131.113L104.649 135.113ZM109.932 140.264L104.649 149.415L111.577 153.415L116.861 144.264L109.932 140.264ZM119.264 153.234L110.113 147.951L106.113 154.879L115.264 160.162L119.264 153.234ZM104.649 149.415L95.4986 165.264L102.427 169.264L111.577 153.415L104.649 149.415ZM98.9627 171.264H117.264V163.264H98.9627V171.264ZM113.264 167.264V185.565H121.264V167.264H113.264ZM119.264 189.03L135.113 179.879L131.113 172.951L115.264 182.101L119.264 189.03ZM129.649 178.415L138.8 194.264L145.728 190.264L136.578 174.415L129.649 178.415ZM145.728 194.264L154.879 178.415L147.951 174.415L138.8 190.264L145.728 194.264ZM149.415 179.879L165.264 189.029L169.264 182.101L153.415 172.951L149.415 179.879ZM171.264 185.565V167.264H163.264V185.565H171.264ZM167.264 171.264H185.565V163.264H167.264V171.264ZM189.03 165.264L179.879 149.415L172.951 153.415L182.101 169.264L189.03 165.264ZM178.415 154.879L194.264 145.728L190.264 138.8L174.415 147.951L178.415 154.879ZM194.264 138.8L178.415 129.649L174.415 136.577L190.264 145.728L194.264 138.8ZM179.879 135.113L189.029 119.264L182.101 115.264L172.951 131.113L179.879 135.113ZM185.565 113.264H167.264V121.264H185.565V113.264ZM171.264 117.264V98.9629H163.264V117.264H171.264ZM165.264 95.4988L149.415 104.649L153.415 111.578L169.264 102.427L165.264 95.4988ZM147.951 110.113L153.234 119.264L160.162 115.264L154.879 106.113L147.951 110.113ZM140.264 167.668L131.113 172.951L135.113 179.879L144.264 174.596L140.264 167.668ZM136.578 174.415L131.295 165.264L124.366 169.264L129.649 178.415L136.578 174.415ZM153.234 165.264L147.951 174.415L154.879 178.415L160.162 169.264L153.234 165.264ZM153.415 172.951L144.264 167.668L140.264 174.596L149.415 179.879L153.415 172.951ZM163.264 156.698V167.264H171.264V156.698H163.264ZM167.264 163.264H156.698V171.264H167.264V163.264ZM167.667 144.264L172.951 153.415L179.879 149.415L174.596 140.264L167.667 144.264ZM174.415 147.951L165.264 153.234L169.264 160.162L178.415 154.879L174.415 147.951ZM165.264 131.294L174.415 136.577L178.415 129.649L169.264 124.366L165.264 131.294ZM172.951 131.113L167.667 140.264L174.596 144.264L179.879 135.113L172.951 131.113ZM127.83 163.264H117.264V171.264H127.83V163.264ZM121.264 167.264V156.698H113.264V167.264H121.264ZM156.698 121.264H167.264V113.264H156.698V121.264ZM163.264 117.264V127.83H171.264V117.264H163.264ZM71.9628 77.4269L115.264 102.427L119.264 95.4986L75.9628 70.4987L71.9628 77.4269ZM101.885 30.3247L113.8 50.9627L120.728 46.9627L108.813 26.3247L101.885 30.3247ZM77.4269 71.9628L65.3795 51.096L58.4513 55.096L70.4987 75.9628L77.4269 71.9628ZM121.264 98.9627L121.264 48.9627L113.264 48.9627L113.264 98.9627L121.264 98.9627Z"
        fill="currentColor" mask="url(#path-1-inside-1_17_429)" />
</svg>