<svg viewBox="0 0 260 260" fill="none" xmlns="http://www.w3.org/2000/svg">
    <path d="M105 229.49V30.5102L130 5L155 30.5102V229.49L130 255L105 229.49Z" stroke="currentColor" stroke-width="6" />
    <path
        d="M58.755 203.414L158.245 31.0925L192.651 21.5L201.546 56.0925L102.056 228.414L67.6505 238.006L58.755 203.414Z"
        stroke="currentColor" stroke-width="6" />
    <path
        d="M31.5862 157.245L203.907 57.7551L238.5 66.6507L228.908 101.056L56.5861 200.546L21.9937 191.651L31.5862 157.245Z"
        stroke="currentColor" stroke-width="6" />
    <path d="M30.5102 105L229.49 105L255 130L229.49 155L30.5102 155L5 130L30.5102 105Z" stroke="currentColor"
        stroke-width="6" />
    <path
        d="M56.5861 57.755L228.908 157.245L238.5 191.651L203.907 200.546L31.5862 101.056L21.9937 66.6505L56.5861 57.755Z"
        stroke="currentColor" stroke-width="6" />
    <path
        d="M101.755 31.5862L201.245 203.907L192.349 238.5L157.944 228.908L58.4537 56.5861L67.3493 21.9937L101.755 31.5862Z"
        stroke="currentColor" stroke-width="6" />
</svg>